<?xml version="1.0" encoding="UTF-8"?>
<!DOCTYPE svg PUBLIC "-//W3C//DTD SVG 1.1//EN" "http://www.w3.org/Graphics/SVG/1.1/DTD/svg11.dtd">
<svg xmlns="http://www.w3.org/2000/svg" version="1.1" width="400px" height="400px" style="shape-rendering:geometricPrecision; text-rendering:geometricPrecision; image-rendering:optimizeQuality; fill-rule:evenodd; clip-rule:evenodd" xmlns:xlink="http://www.w3.org/1999/xlink">
<g><path style="opacity:0.024" fill="#ffab1d" d="M 215.5,4.5 C 217.966,3.36594 220.633,3.19927 223.5,4C 220.854,4.49742 218.187,4.66409 215.5,4.5 Z"/></g>
<g><path style="opacity:0.004" fill="#feff00" d="M 170.5,5.5 C 171.946,4.38705 173.613,4.22039 175.5,5C 173.866,5.49351 172.199,5.66018 170.5,5.5 Z"/></g>
<g><path style="opacity:0.972" fill="#f89a1d" d="M 215.5,4.5 C 224.025,5.89718 232.692,7.23052 241.5,8.5C 245.264,9.99152 249.264,10.9915 253.5,11.5C 254.568,12.4345 255.901,12.7678 257.5,12.5C 260.215,14.0719 263.215,15.0719 266.5,15.5C 269.518,17.3999 272.851,18.7333 276.5,19.5C 278.426,21.2927 280.759,22.2927 283.5,22.5C 283.842,23.3382 284.508,23.6716 285.5,23.5C 286.965,24.7368 288.632,25.7368 290.5,26.5C 292.181,28.0075 294.181,29.0075 296.5,29.5C 296.842,30.3382 297.508,30.6716 298.5,30.5C 303.291,34.0683 308.291,37.4016 313.5,40.5C 316.19,43.1846 319.19,45.5179 322.5,47.5C 332.801,56.1334 342.467,65.4667 351.5,75.5C 353.111,79.0515 355.444,82.0515 358.5,84.5C 361.004,89.5146 364.004,94.1813 367.5,98.5C 367.427,100.027 368.094,101.027 369.5,101.5C 369.328,102.492 369.662,103.158 370.5,103.5C 371.41,106.992 373.076,109.992 375.5,112.5C 375.328,113.492 375.662,114.158 376.5,114.5C 376.66,116.153 377.326,117.486 378.5,118.5C 378.707,121.241 379.707,123.574 381.5,125.5C 382.065,129.537 383.399,133.203 385.5,136.5C 385.595,138.786 386.262,140.786 387.5,142.5C 387.263,143.791 387.596,144.791 388.5,145.5C 389.342,151.397 390.676,157.064 392.5,162.5C 395.024,180.069 396.024,197.736 395.5,215.5C 394.074,222.639 393.074,229.972 392.5,237.5C 390.676,242.936 389.342,248.603 388.5,254.5C 387.596,255.209 387.263,256.209 387.5,257.5C 386.262,259.214 385.595,261.214 385.5,263.5C 384.596,264.209 384.263,265.209 384.5,266.5C 382.733,268.792 381.733,271.458 381.5,274.5C 380.662,274.842 380.328,275.508 380.5,276.5C 379.069,277.78 378.402,279.447 378.5,281.5C 377.662,281.842 377.328,282.508 377.5,283.5C 376.662,283.842 376.328,284.508 376.5,285.5C 375.662,285.842 375.328,286.508 375.5,287.5C 374.662,287.842 374.328,288.508 374.5,289.5C 373.662,289.842 373.328,290.508 373.5,291.5C 371.75,292.659 370.75,294.326 370.5,296.5C 369.662,296.842 369.328,297.508 369.5,298.5C 368.094,298.973 367.427,299.973 367.5,301.5C 366.662,301.842 366.328,302.508 366.5,303.5C 365.833,303.5 365.5,303.833 365.5,304.5C 364.662,304.842 364.328,305.508 364.5,306.5C 363.833,306.5 363.5,306.833 363.5,307.5C 362.662,307.842 362.328,308.508 362.5,309.5C 361.833,309.5 361.5,309.833 361.5,310.5C 360.662,310.842 360.328,311.508 360.5,312.5C 359.833,312.5 359.5,312.833 359.5,313.5C 358.662,313.842 358.328,314.508 358.5,315.5C 357.833,315.5 357.5,315.833 357.5,316.5C 355.457,317.579 354.124,319.246 353.5,321.5C 352.833,321.5 352.5,321.833 352.5,322.5C 351.662,322.842 351.328,323.508 351.5,324.5C 350.833,324.5 350.5,324.833 350.5,325.5C 349.833,325.5 349.5,325.833 349.5,326.5C 348.833,326.5 348.5,326.833 348.5,327.5C 346.457,328.579 345.124,330.246 344.5,332.5C 343.833,332.5 343.5,332.833 343.5,333.5C 342.833,333.5 342.5,333.833 342.5,334.5C 341.833,334.5 341.5,334.833 341.5,335.5C 340.833,335.5 340.5,335.833 340.5,336.5C 339.833,336.5 339.5,336.833 339.5,337.5C 338.833,337.5 338.5,337.833 338.5,338.5C 337.833,338.5 337.5,338.833 337.5,339.5C 336.833,339.5 336.5,339.833 336.5,340.5C 335.833,340.5 335.5,340.833 335.5,341.5C 334.833,341.5 334.5,341.833 334.5,342.5C 333.833,342.5 333.5,342.833 333.5,343.5C 330.891,344.443 328.891,346.11 327.5,348.5C 326.833,348.5 326.5,348.833 326.5,349.5C 325.833,349.5 325.5,349.833 325.5,350.5C 324.833,350.5 324.5,350.833 324.5,351.5C 323.508,351.328 322.842,351.662 322.5,352.5C 321.833,352.5 321.5,352.833 321.5,353.5C 319.246,354.124 317.579,355.457 316.5,357.5C 314.973,357.427 313.973,358.094 313.5,359.5C 312.833,359.5 312.5,359.833 312.5,360.5C 311.508,360.328 310.842,360.662 310.5,361.5C 309.833,361.5 309.5,361.833 309.5,362.5C 308.508,362.328 307.842,362.662 307.5,363.5C 306.833,363.5 306.5,363.833 306.5,364.5C 305.508,364.328 304.842,364.662 304.5,365.5C 303.833,365.5 303.5,365.833 303.5,366.5C 302.508,366.328 301.842,366.662 301.5,367.5C 299.973,367.427 298.973,368.094 298.5,369.5C 297.508,369.328 296.842,369.662 296.5,370.5C 294.326,370.75 292.659,371.75 291.5,373.5C 290.508,373.328 289.842,373.662 289.5,374.5C 288.508,374.328 287.842,374.662 287.5,375.5C 286.508,375.328 285.842,375.662 285.5,376.5C 284.508,376.328 283.842,376.662 283.5,377.5C 282.508,377.328 281.842,377.662 281.5,378.5C 279.447,378.402 277.78,379.069 276.5,380.5C 275.508,380.328 274.842,380.662 274.5,381.5C 271.458,381.733 268.792,382.733 266.5,384.5C 265.209,384.263 264.209,384.596 263.5,385.5C 261.214,385.595 259.214,386.262 257.5,387.5C 255.901,387.232 254.568,387.566 253.5,388.5C 249.313,389.213 245.313,390.213 241.5,391.5C 239.901,391.232 238.568,391.566 237.5,392.5C 229.972,393.074 222.639,394.074 215.5,395.5C 197.736,396.024 180.069,395.024 162.5,392.5C 157.372,390.802 152.039,389.469 146.5,388.5C 145.432,387.566 144.099,387.232 142.5,387.5C 140.786,386.262 138.786,385.595 136.5,385.5C 133.203,383.399 129.537,382.065 125.5,381.5C 123.574,379.707 121.241,378.707 118.5,378.5C 117.486,377.326 116.153,376.66 114.5,376.5C 114.158,375.662 113.492,375.328 112.5,375.5C 111.486,374.326 110.153,373.66 108.5,373.5C 107.341,371.75 105.674,370.75 103.5,370.5C 103.158,369.662 102.492,369.328 101.5,369.5C 101.027,368.094 100.027,367.427 98.5,367.5C 93.6803,363.922 88.6803,360.588 83.5,357.5C 70.2029,347.203 58.2029,335.537 47.5,322.5C 45.5179,319.19 43.1846,316.19 40.5,313.5C 40.0679,312.29 39.4013,311.29 38.5,310.5C 38.0679,309.29 37.4013,308.29 36.5,307.5C 36.5,306.833 36.1667,306.5 35.5,306.5C 34.8897,304.566 33.8897,302.899 32.5,301.5C 32.573,299.973 31.9063,298.973 30.5,298.5C 30.6716,297.508 30.3382,296.842 29.5,296.5C 29.2503,294.326 28.2503,292.659 26.5,291.5C 26.6716,290.508 26.3382,289.842 25.5,289.5C 25.6716,288.508 25.3382,287.842 24.5,287.5C 24.6716,286.508 24.3382,285.842 23.5,285.5C 23.6716,284.508 23.3382,283.842 22.5,283.5C 22.6716,282.508 22.3382,281.842 21.5,281.5C 21.5979,279.447 20.9313,277.78 19.5,276.5C 19.6716,275.508 19.3382,274.842 18.5,274.5C 18.2671,271.458 17.2671,268.792 15.5,266.5C 15.7373,265.209 15.404,264.209 14.5,263.5C 14.405,261.214 13.7384,259.214 12.5,257.5C 12.7373,256.209 12.404,255.209 11.5,254.5C 10.6578,248.603 9.32449,242.936 7.5,237.5C 7.22956,232.972 6.56289,228.639 5.5,224.5C 5.81,221.287 5.47667,218.287 4.5,215.5C 4.36077,202.15 4.69411,188.817 5.5,175.5C 6.56289,171.361 7.22956,167.028 7.5,162.5C 9.32449,157.064 10.6578,151.397 11.5,145.5C 12.404,144.791 12.7373,143.791 12.5,142.5C 13.7384,140.786 14.405,138.786 14.5,136.5C 16.6013,133.203 17.9347,129.537 18.5,125.5C 20.2927,123.574 21.2927,121.241 21.5,118.5C 22.6737,117.486 23.3404,116.153 23.5,114.5C 26.2583,111.322 28.2583,107.655 29.5,103.5C 30.3382,103.158 30.6716,102.492 30.5,101.5C 31.9063,101.027 32.573,100.027 32.5,98.5C 50.2132,70.4533 73.2132,47.7867 101.5,30.5C 102.492,30.6716 103.158,30.3382 103.5,29.5C 107.655,28.2583 111.322,26.2583 114.5,23.5C 115.492,23.6716 116.158,23.3382 116.5,22.5C 125.309,19.3449 133.975,16.0115 142.5,12.5C 166.402,6.1377 190.735,3.47103 215.5,4.5 Z M 224.5,23.5 C 230.095,23.7536 235.428,24.7536 240.5,26.5C 242.099,26.2322 243.432,26.5655 244.5,27.5C 243.448,27.3505 242.448,27.5172 241.5,28C 243,28.5 244.5,29 246,29.5C 246.765,29.4301 247.265,29.0967 247.5,28.5C 250.428,28.5651 253.095,29.2318 255.5,30.5C 254.761,30.369 254.094,30.5357 253.5,31C 254.833,31.6667 256.167,32.3333 257.5,33C 258.749,33.7401 259.749,33.5735 260.5,32.5C 262.786,32.595 264.786,33.2616 266.5,34.5C 265.761,34.369 265.094,34.5357 264.5,35C 266.167,35.8333 267.833,36.6667 269.5,37.5C 270.107,37.3764 270.44,37.0431 270.5,36.5C 271.791,36.2627 272.791,36.596 273.5,37.5C 272.761,37.369 272.094,37.5357 271.5,38C 273.167,38.8333 274.833,39.6667 276.5,40.5C 277.107,40.3764 277.44,40.0431 277.5,39.5C 279.153,39.6596 280.486,40.3263 281.5,41.5C 280.761,41.369 280.094,41.5357 279.5,42C 280.946,43.298 282.279,43.4646 283.5,42.5C 285.153,42.6596 286.486,43.3263 287.5,44.5C 286.761,44.369 286.094,44.5357 285.5,45C 289.084,47.0414 292.584,49.208 296,51.5C 296.399,51.2716 296.565,50.9382 296.5,50.5C 297.492,50.3284 298.158,50.6618 298.5,51.5C 297.167,51.8333 297.167,52.1667 298.5,52.5C 298.5,53.1667 298.833,53.5 299.5,53.5C 300.172,54.2674 301.005,54.9341 302,55.5C 302.399,55.2716 302.565,54.9382 302.5,54.5C 303.492,54.3284 304.158,54.6618 304.5,55.5C 303.453,56.0778 303.62,56.7445 305,57.5C 305.399,57.2716 305.565,56.9382 305.5,56.5C 307.027,56.427 308.027,57.0937 308.5,58.5C 308.062,58.4346 307.728,58.6012 307.5,59C 310.014,61.4145 312.681,63.5812 315.5,65.5C 315.5,66.1667 315.833,66.5 316.5,66.5C 316.5,67.1667 316.833,67.5 317.5,67.5C 321.807,71.4718 326.141,75.4718 330.5,79.5C 330.427,81.0269 331.094,82.0269 332.5,82.5C 332.5,83.1667 332.833,83.5 333.5,83.5C 335.992,86.4691 338.492,89.4691 341,92.5C 341.399,92.2716 341.565,91.9382 341.5,91.5C 342.906,91.9731 343.573,92.9731 343.5,94.5C 342.453,95.0778 342.62,95.7445 344,96.5C 344.399,96.2716 344.565,95.9382 344.5,95.5C 345.338,95.8417 345.672,96.5084 345.5,97.5C 345.062,97.4346 344.728,97.6012 344.5,98C 345.066,98.9947 345.733,99.828 346.5,100.5C 346.5,101.167 346.833,101.5 347.5,101.5C 347.833,102.833 348.167,102.833 348.5,101.5C 349.338,101.842 349.672,102.508 349.5,103.5C 349.062,103.435 348.728,103.601 348.5,104C 350.792,107.416 352.959,110.916 355,114.5C 355.464,113.906 355.631,113.239 355.5,112.5C 356.674,113.514 357.34,114.847 357.5,116.5C 356.957,116.56 356.624,116.893 356.5,117.5C 358.333,121.167 360.167,124.833 362,128.5C 362.464,127.906 362.631,127.239 362.5,126.5C 363.404,127.209 363.737,128.209 363.5,129.5C 362.957,129.56 362.624,129.893 362.5,130.5C 363.333,132.167 364.167,133.833 365,135.5C 365.464,134.906 365.631,134.239 365.5,133.5C 366.738,135.214 367.405,137.214 367.5,139.5C 366.427,140.251 366.26,141.251 367,142.5C 367.667,143.833 368.333,145.167 369,146.5C 369.464,145.906 369.631,145.239 369.5,144.5C 370.768,146.905 371.435,149.572 371.5,152.5C 370.903,152.735 370.57,153.235 370.5,154C 371,155.5 371.5,157 372,158.5C 372.483,157.552 372.649,156.552 372.5,155.5C 373.434,156.568 373.768,157.901 373.5,159.5C 374.785,162.589 375.451,165.922 375.5,169.5C 374.853,170.274 374.52,171.274 374.5,172.5C 375,175.5 375.5,178.5 376,181.5C 376.495,179.527 376.662,177.527 376.5,175.5C 379.167,191.833 379.167,208.167 376.5,224.5C 376.662,222.473 376.495,220.473 376,218.5C 375.5,221.5 375,224.5 374.5,227.5C 374.52,228.726 374.853,229.726 375.5,230.5C 375.451,234.078 374.785,237.411 373.5,240.5C 373.768,242.099 373.434,243.432 372.5,244.5C 372.649,243.448 372.483,242.448 372,241.5C 371.5,243 371,244.5 370.5,246C 370.57,246.765 370.903,247.265 371.5,247.5C 371.435,250.428 370.768,253.095 369.5,255.5C 369.631,254.761 369.464,254.094 369,253.5C 368.333,254.833 367.667,256.167 367,257.5C 366.26,258.749 366.427,259.749 367.5,260.5C 367.405,262.786 366.738,264.786 365.5,266.5C 365.631,265.761 365.464,265.094 365,264.5C 364.167,266.167 363.333,267.833 362.5,269.5C 362.624,270.107 362.957,270.44 363.5,270.5C 363.737,271.791 363.404,272.791 362.5,273.5C 362.631,272.761 362.464,272.094 362,271.5C 361.167,273.167 360.333,274.833 359.5,276.5C 359.624,277.107 359.957,277.44 360.5,277.5C 360.34,279.153 359.674,280.486 358.5,281.5C 358.631,280.761 358.464,280.094 358,279.5C 356.702,280.946 356.535,282.279 357.5,283.5C 357.34,285.153 356.674,286.486 355.5,287.5C 355.631,286.761 355.464,286.094 355,285.5C 352.959,289.084 350.792,292.584 348.5,296C 348.728,296.399 349.062,296.565 349.5,296.5C 349.672,297.492 349.338,298.158 348.5,298.5C 348.167,297.167 347.833,297.167 347.5,298.5C 346.833,298.5 346.5,298.833 346.5,299.5C 345.733,300.172 345.066,301.005 344.5,302C 344.728,302.399 345.062,302.565 345.5,302.5C 345.672,303.492 345.338,304.158 344.5,304.5C 343.922,303.453 343.256,303.62 342.5,305C 342.728,305.399 343.062,305.565 343.5,305.5C 343.573,307.027 342.906,308.027 341.5,308.5C 341.565,308.062 341.399,307.728 341,307.5C 338.492,310.531 335.992,313.531 333.5,316.5C 332.833,316.5 332.5,316.833 332.5,317.5C 331.094,317.973 330.427,318.973 330.5,320.5C 326.141,324.528 321.807,328.528 317.5,332.5C 316.833,332.5 316.5,332.833 316.5,333.5C 315.833,333.5 315.5,333.833 315.5,334.5C 312.681,336.419 310.014,338.585 307.5,341C 307.728,341.399 308.062,341.565 308.5,341.5C 308.027,342.906 307.027,343.573 305.5,343.5C 304.922,342.453 304.256,342.62 303.5,344C 303.728,344.399 304.062,344.565 304.5,344.5C 304.158,345.338 303.492,345.672 302.5,345.5C 302.565,345.062 302.399,344.728 302,344.5C 301.005,345.066 300.172,345.733 299.5,346.5C 298.833,346.5 298.5,346.833 298.5,347.5C 297.167,347.833 297.167,348.167 298.5,348.5C 298.158,349.338 297.492,349.672 296.5,349.5C 296.565,349.062 296.399,348.728 296,348.5C 292.584,350.792 289.084,352.959 285.5,355C 286.094,355.464 286.761,355.631 287.5,355.5C 286.486,356.674 285.153,357.34 283.5,357.5C 282.503,356.287 281.503,356.454 280.5,358C 280.728,358.399 281.062,358.565 281.5,358.5C 280.486,359.674 279.153,360.34 277.5,360.5C 277.44,359.957 277.107,359.624 276.5,359.5C 274.833,360.333 273.167,361.167 271.5,362C 272.094,362.464 272.761,362.631 273.5,362.5C 272.791,363.404 271.791,363.737 270.5,363.5C 270.44,362.957 270.107,362.624 269.5,362.5C 267.833,363.333 266.167,364.167 264.5,365C 265.094,365.464 265.761,365.631 266.5,365.5C 264.786,366.738 262.786,367.405 260.5,367.5C 259.749,366.427 258.749,366.26 257.5,367C 256.167,367.667 254.833,368.333 253.5,369C 254.094,369.464 254.761,369.631 255.5,369.5C 253.095,370.768 250.428,371.435 247.5,371.5C 247.265,370.903 246.765,370.57 246,370.5C 244.5,371 243,371.5 241.5,372C 242.448,372.483 243.448,372.649 244.5,372.5C 243.432,373.434 242.099,373.768 240.5,373.5C 237.411,374.785 234.078,375.451 230.5,375.5C 229.726,374.853 228.726,374.52 227.5,374.5C 224.5,375 221.5,375.5 218.5,376C 220.473,376.495 222.473,376.662 224.5,376.5C 208.167,379.167 191.833,379.167 175.5,376.5C 177.527,376.662 179.527,376.495 181.5,376C 178.5,375.5 175.5,375 172.5,374.5C 171.274,374.52 170.274,374.853 169.5,375.5C 165.922,375.451 162.589,374.785 159.5,373.5C 157.901,373.768 156.568,373.434 155.5,372.5C 156.552,372.649 157.552,372.483 158.5,372C 157,371.5 155.5,371 154,370.5C 153.235,370.57 152.735,370.903 152.5,371.5C 149.572,371.435 146.905,370.768 144.5,369.5C 145.239,369.631 145.906,369.464 146.5,369C 145.167,368.333 143.833,367.667 142.5,367C 141.251,366.26 140.251,366.427 139.5,367.5C 137.214,367.405 135.214,366.738 133.5,365.5C 134.239,365.631 134.906,365.464 135.5,365C 133.833,364.167 132.167,363.333 130.5,362.5C 129.893,362.624 129.56,362.957 129.5,363.5C 128.209,363.737 127.209,363.404 126.5,362.5C 127.239,362.631 127.906,362.464 128.5,362C 126.833,361.167 125.167,360.333 123.5,359.5C 122.893,359.624 122.56,359.957 122.5,360.5C 120.847,360.34 119.514,359.674 118.5,358.5C 119.738,358.19 119.738,357.69 118.5,357C 117.563,356.308 116.897,356.475 116.5,357.5C 114.847,357.34 113.514,356.674 112.5,355.5C 113.239,355.631 113.906,355.464 114.5,355C 110.916,352.959 107.416,350.792 104,348.5C 103.601,348.728 103.435,349.062 103.5,349.5C 102.508,349.672 101.842,349.338 101.5,348.5C 102.833,348.167 102.833,347.833 101.5,347.5C 101.5,346.833 101.167,346.5 100.5,346.5C 99.828,345.733 98.9947,345.066 98,344.5C 97.6012,344.728 97.4346,345.062 97.5,345.5C 96.5084,345.672 95.8417,345.338 95.5,344.5C 96.547,343.922 96.3803,343.256 95,342.5C 94.6012,342.728 94.4346,343.062 94.5,343.5C 92.9731,343.573 91.9731,342.906 91.5,341.5C 91.9382,341.565 92.2716,341.399 92.5,341C 89.986,338.585 87.3194,336.419 84.5,334.5C 84.5,333.833 84.1667,333.5 83.5,333.5C 83.5,332.833 83.1667,332.5 82.5,332.5C 78.1927,328.528 73.8593,324.528 69.5,320.5C 69.573,318.973 68.9063,317.973 67.5,317.5C 67.5,316.833 67.1667,316.5 66.5,316.5C 64.0081,313.531 61.5081,310.531 59,307.5C 58.6012,307.728 58.4346,308.062 58.5,308.5C 57.0937,308.027 56.427,307.027 56.5,305.5C 57.547,304.922 57.3803,304.256 56,303.5C 55.6012,303.728 55.4346,304.062 55.5,304.5C 54.6618,304.158 54.3284,303.492 54.5,302.5C 54.9382,302.565 55.2716,302.399 55.5,302C 54.9341,301.005 54.2674,300.172 53.5,299.5C 53.5,298.833 53.1667,298.5 52.5,298.5C 52.1667,297.167 51.8333,297.167 51.5,298.5C 50.6618,298.158 50.3284,297.492 50.5,296.5C 50.9382,296.565 51.2716,296.399 51.5,296C 49.208,292.584 47.0414,289.084 45,285.5C 44.5357,286.094 44.369,286.761 44.5,287.5C 43.3263,286.486 42.6596,285.153 42.5,283.5C 43.0431,283.44 43.3764,283.107 43.5,282.5C 41.6667,278.833 39.8333,275.167 38,271.5C 37.5357,272.094 37.369,272.761 37.5,273.5C 36.596,272.791 36.2627,271.791 36.5,270.5C 37.0431,270.44 37.3764,270.107 37.5,269.5C 36.6667,267.833 35.8333,266.167 35,264.5C 34.5357,265.094 34.369,265.761 34.5,266.5C 33.2616,264.786 32.595,262.786 32.5,260.5C 33.5735,259.749 33.7401,258.749 33,257.5C 32.3333,256.167 31.6667,254.833 31,253.5C 30.5357,254.094 30.369,254.761 30.5,255.5C 29.2318,253.095 28.5651,250.428 28.5,247.5C 29.0967,247.265 29.4301,246.765 29.5,246C 29,244.5 28.5,243 28,241.5C 27.5172,242.448 27.3505,243.448 27.5,244.5C 26.5655,243.432 26.2322,242.099 26.5,240.5C 25.2154,237.411 24.5488,234.078 24.5,230.5C 25.1471,229.726 25.4805,228.726 25.5,227.5C 25,224.5 24.5,221.5 24,218.5C 23.5045,220.473 23.3379,222.473 23.5,224.5C 20.8333,208.167 20.8333,191.833 23.5,175.5C 23.3379,177.527 23.5045,179.527 24,181.5C 24.5,178.5 25,175.5 25.5,172.5C 25.4805,171.274 25.1471,170.274 24.5,169.5C 24.5488,165.922 25.2154,162.589 26.5,159.5C 26.2322,157.901 26.5655,156.568 27.5,155.5C 27.3505,156.552 27.5172,157.552 28,158.5C 28.5,157 29,155.5 29.5,154C 29.4301,153.235 29.0967,152.735 28.5,152.5C 28.5651,149.572 29.2318,146.905 30.5,144.5C 30.369,145.239 30.5357,145.906 31,146.5C 31.6667,145.167 32.3333,143.833 33,142.5C 33.7401,141.251 33.5735,140.251 32.5,139.5C 32.595,137.214 33.2616,135.214 34.5,133.5C 34.369,134.239 34.5357,134.906 35,135.5C 35.8333,133.833 36.6667,132.167 37.5,130.5C 37.3764,129.893 37.0431,129.56 36.5,129.5C 36.2627,128.209 36.596,127.209 37.5,126.5C 37.369,127.239 37.5357,127.906 38,128.5C 39.8333,124.833 41.6667,121.167 43.5,117.5C 43.3764,116.893 43.0431,116.56 42.5,116.5C 42.6596,114.847 43.3263,113.514 44.5,112.5C 44.369,113.239 44.5357,113.906 45,114.5C 47.0414,110.916 49.208,107.416 51.5,104C 51.2716,103.601 50.9382,103.435 50.5,103.5C 50.3284,102.508 50.6618,101.842 51.5,101.5C 51.8333,102.833 52.1667,102.833 52.5,101.5C 53.1667,101.5 53.5,101.167 53.5,100.5C 54.2674,99.828 54.9341,98.9947 55.5,98C 55.2716,97.6012 54.9382,97.4346 54.5,97.5C 54.3284,96.5084 54.6618,95.8417 55.5,95.5C 56.0778,96.547 56.7445,96.3803 57.5,95C 57.2716,94.6012 56.9382,94.4346 56.5,94.5C 56.427,92.9731 57.0937,91.9731 58.5,91.5C 58.4346,91.9382 58.6012,92.2716 59,92.5C 61.5081,89.4691 64.0081,86.4691 66.5,83.5C 67.1667,83.5 67.5,83.1667 67.5,82.5C 68.9063,82.0269 69.573,81.0269 69.5,79.5C 73.8593,75.4718 78.1927,71.4718 82.5,67.5C 83.1667,67.5 83.5,67.1667 83.5,66.5C 84.1667,66.5 84.5,66.1667 84.5,65.5C 87.3194,63.5812 89.986,61.4145 92.5,59C 92.2716,58.6012 91.9382,58.4346 91.5,58.5C 91.9731,57.0937 92.9731,56.427 94.5,56.5C 95.0778,57.547 95.7445,57.3803 96.5,56C 96.2716,55.6012 95.9382,55.4346 95.5,55.5C 95.8417,54.6618 96.5084,54.3284 97.5,54.5C 97.4346,54.9382 97.6012,55.2716 98,55.5C 98.9947,54.9341 99.828,54.2674 100.5,53.5C 101.167,53.5 101.5,53.1667 101.5,52.5C 102.833,52.1667 102.833,51.8333 101.5,51.5C 101.842,50.6618 102.508,50.3284 103.5,50.5C 103.435,50.9382 103.601,51.2716 104,51.5C 107.416,49.208 110.916,47.0414 114.5,45C 113.906,44.5357 113.239,44.369 112.5,44.5C 113.514,43.3263 114.847,42.6596 116.5,42.5C 117.721,43.4646 119.054,43.298 120.5,42C 119.906,41.5357 119.239,41.369 118.5,41.5C 119.514,40.3263 120.847,39.6596 122.5,39.5C 122.56,40.0431 122.893,40.3764 123.5,40.5C 125.167,39.6667 126.833,38.8333 128.5,38C 127.906,37.5357 127.239,37.369 126.5,37.5C 127.209,36.596 128.209,36.2627 129.5,36.5C 129.56,37.0431 129.893,37.3764 130.5,37.5C 132.167,36.6667 133.833,35.8333 135.5,35C 134.906,34.5357 134.239,34.369 133.5,34.5C 135.214,33.2616 137.214,32.595 139.5,32.5C 140.251,33.5735 141.251,33.7401 142.5,33C 143.833,32.3333 145.167,31.6667 146.5,31C 145.906,30.5357 145.239,30.369 144.5,30.5C 146.905,29.2318 149.572,28.5651 152.5,28.5C 152.735,29.0967 153.235,29.4301 154,29.5C 155.5,29 157,28.5 158.5,28C 157.552,27.5172 156.552,27.3505 155.5,27.5C 156.568,26.5655 157.901,26.2322 159.5,26.5C 164.572,24.7536 169.905,23.7536 175.5,23.5C 191.833,20.8333 208.167,20.8333 224.5,23.5 Z M 101.5,51.5 C 101.5,51.8333 101.5,52.1667 101.5,52.5C 100.833,52.5 100.5,52.8333 100.5,53.5C 99.8333,53.5 99.1667,53.5 98.5,53.5C 98.9731,52.0937 99.9731,51.427 101.5,51.5 Z M 298.5,52.5 C 298.5,52.1667 298.5,51.8333 298.5,51.5C 300.027,51.427 301.027,52.0937 301.5,53.5C 300.833,53.5 300.167,53.5 299.5,53.5C 298.833,53.5 298.5,53.1667 298.5,52.5 Z M 111.5,60.5 C 112.167,60.5 112.833,60.5 113.5,60.5C 113.027,61.9063 112.027,62.573 110.5,62.5C 110.5,62.1667 110.5,61.8333 110.5,61.5C 111.167,61.5 111.5,61.1667 111.5,60.5 Z M 84.5,64.5 C 84.5,64.8333 84.5,65.1667 84.5,65.5C 83.8333,65.5 83.5,65.8333 83.5,66.5C 82.8333,66.5 82.5,66.8333 82.5,67.5C 81.8333,67.5 81.1667,67.5 80.5,67.5C 81.2623,65.7376 82.5956,64.7376 84.5,64.5 Z M 315.5,65.5 C 315.5,65.1667 315.5,64.8333 315.5,64.5C 317.404,64.7376 318.738,65.7376 319.5,67.5C 318.833,67.5 318.167,67.5 317.5,67.5C 316.833,67.5 316.5,67.1667 316.5,66.5C 315.833,66.5 315.5,66.1667 315.5,65.5 Z M 97.5,70.5 C 98.1667,70.5 98.8333,70.5 99.5,70.5C 99.0269,71.9063 98.0269,72.573 96.5,72.5C 96.5,72.1667 96.5,71.8333 96.5,71.5C 97.1667,71.5 97.5,71.1667 97.5,70.5 Z M 67.5,80.5 C 67.5,81.1667 67.5,81.8333 67.5,82.5C 66.8333,82.5 66.5,82.8333 66.5,83.5C 66.1667,83.5 65.8333,83.5 65.5,83.5C 65.427,81.9731 66.0937,80.9731 67.5,80.5 Z M 332.5,80.5 C 333.906,80.9731 334.573,81.9731 334.5,83.5C 334.167,83.5 333.833,83.5 333.5,83.5C 332.833,83.5 332.5,83.1667 332.5,82.5C 332.5,81.8333 332.5,81.1667 332.5,80.5 Z M 322.5,91.5 C 322.833,91.5 323.167,91.5 323.5,91.5C 323.5,92.1667 323.833,92.5 324.5,92.5C 324.5,93.1667 324.833,93.5 325.5,93.5C 325.5,94.1667 325.5,94.8333 325.5,95.5C 323.738,94.7377 322.738,93.4044 322.5,91.5 Z M 71.5,96.5 C 71.8333,96.5 72.1667,96.5 72.5,96.5C 72.573,98.0269 71.9063,99.0269 70.5,99.5C 70.5,98.8333 70.5,98.1667 70.5,97.5C 71.1667,97.5 71.5,97.1667 71.5,96.5 Z M 53.5,98.5 C 53.5,99.1667 53.5,99.8333 53.5,100.5C 52.8333,100.5 52.5,100.833 52.5,101.5C 52.1667,101.5 51.8333,101.5 51.5,101.5C 51.427,99.9731 52.0937,98.9731 53.5,98.5 Z M 346.5,98.5 C 347.906,98.9731 348.573,99.9731 348.5,101.5C 348.167,101.5 347.833,101.5 347.5,101.5C 346.833,101.5 346.5,101.167 346.5,100.5C 346.5,99.8333 346.5,99.1667 346.5,98.5 Z M 61.5,110.5 C 61.8333,110.5 62.1667,110.5 62.5,110.5C 62.573,112.027 61.9063,113.027 60.5,113.5C 60.5,112.833 60.5,112.167 60.5,111.5C 61.1667,111.5 61.5,111.167 61.5,110.5 Z M 339.5,284.5 C 339.5,285.167 339.5,285.833 339.5,286.5C 338.833,286.5 338.5,286.833 338.5,287.5C 338.167,287.5 337.833,287.5 337.5,287.5C 337.427,285.973 338.094,284.973 339.5,284.5 Z M 51.5,298.5 C 51.8333,298.5 52.1667,298.5 52.5,298.5C 53.1667,298.5 53.5,298.833 53.5,299.5C 53.5,300.167 53.5,300.833 53.5,301.5C 52.0937,301.027 51.427,300.027 51.5,298.5 Z M 347.5,298.5 C 347.833,298.5 348.167,298.5 348.5,298.5C 348.573,300.027 347.906,301.027 346.5,301.5C 346.5,300.833 346.5,300.167 346.5,299.5C 347.167,299.5 347.5,299.167 347.5,298.5 Z M 65.5,316.5 C 65.8333,316.5 66.1667,316.5 66.5,316.5C 67.1667,316.5 67.5,316.833 67.5,317.5C 67.5,318.167 67.5,318.833 67.5,319.5C 66.0937,319.027 65.427,318.027 65.5,316.5 Z M 333.5,316.5 C 333.833,316.5 334.167,316.5 334.5,316.5C 334.573,318.027 333.906,319.027 332.5,319.5C 332.5,318.833 332.5,318.167 332.5,317.5C 333.167,317.5 333.5,317.167 333.5,316.5 Z M 92.5,324.5 C 92.5,324.167 92.5,323.833 92.5,323.5C 94.0269,323.427 95.0269,324.094 95.5,325.5C 94.8333,325.5 94.1667,325.5 93.5,325.5C 93.5,324.833 93.1667,324.5 92.5,324.5 Z M 80.5,332.5 C 81.1667,332.5 81.8333,332.5 82.5,332.5C 83.1667,332.5 83.5,332.833 83.5,333.5C 84.1667,333.5 84.5,333.833 84.5,334.5C 84.5,334.833 84.5,335.167 84.5,335.5C 82.5956,335.262 81.2623,334.262 80.5,332.5 Z M 317.5,332.5 C 318.167,332.5 318.833,332.5 319.5,332.5C 318.738,334.262 317.404,335.262 315.5,335.5C 315.5,335.167 315.5,334.833 315.5,334.5C 316.167,334.5 316.5,334.167 316.5,333.5C 317.167,333.5 317.5,333.167 317.5,332.5 Z M 287.5,337.5 C 287.5,337.833 287.5,338.167 287.5,338.5C 286.833,338.5 286.5,338.833 286.5,339.5C 285.833,339.5 285.167,339.5 284.5,339.5C 284.973,338.094 285.973,337.427 287.5,337.5 Z M 98.5,346.5 C 99.1667,346.5 99.8333,346.5 100.5,346.5C 101.167,346.5 101.5,346.833 101.5,347.5C 101.5,347.833 101.5,348.167 101.5,348.5C 99.9731,348.573 98.9731,347.906 98.5,346.5 Z M 299.5,346.5 C 300.167,346.5 300.833,346.5 301.5,346.5C 301.027,347.906 300.027,348.573 298.5,348.5C 298.5,348.167 298.5,347.833 298.5,347.5C 299.167,347.5 299.5,347.167 299.5,346.5 Z"/></g>
<g><path style="opacity:0.004" fill="#feff00" d="M 224.5,5.5 C 225.946,4.38705 227.613,4.22039 229.5,5C 227.866,5.49351 226.199,5.66018 224.5,5.5 Z"/></g>
<g><path style="opacity:0.008" fill="#ffbcfe" d="M 162.5,6.5 C 163.601,5.40168 164.934,5.23502 166.5,6C 165.207,6.49001 163.873,6.65668 162.5,6.5 Z"/></g>
<g><path style="opacity:0.012" fill="#ffc4ff" d="M 233.5,6.5 C 234.601,5.40168 235.934,5.23502 237.5,6C 236.207,6.49001 234.873,6.65668 233.5,6.5 Z"/></g>
<g><path style="opacity:0.01" fill="#ff9aff" d="M 241.5,8.5 C 242.601,7.40168 243.934,7.23502 245.5,8C 244.207,8.49001 242.873,8.65668 241.5,8.5 Z"/></g>
<g><path style="opacity:0.004" fill="#feff00" d="M 149.5,9.5 C 149.897,8.47498 150.563,8.30831 151.5,9C 150.906,9.46434 150.239,9.63101 149.5,9.5 Z"/></g>
<g><path style="opacity:0.004" fill="#feff00" d="M 248.5,9.5 C 248.897,8.47498 249.563,8.30831 250.5,9C 249.906,9.46434 249.239,9.63101 248.5,9.5 Z"/></g>
<g><path style="opacity:0.02" fill="#ffcf26" d="M 253.5,11.5 C 254.251,10.4265 255.251,10.2599 256.5,11C 255.552,11.4828 254.552,11.6495 253.5,11.5 Z"/></g>
<g><path style="opacity:0.008" fill="#ffacfe" d="M 142.5,12.5 C 141.761,12.631 141.094,12.4643 140.5,12C 141.437,11.3083 142.103,11.475 142.5,12.5 Z"/></g>
<g><path style="opacity:0.004" fill="#ffd6fe" d="M 257.5,12.5 C 257.897,11.475 258.563,11.3083 259.5,12C 258.906,12.4643 258.239,12.631 257.5,12.5 Z"/></g>
<g><path style="opacity:0.006" fill="#feff00" d="M 136.5,13.5 C 136.897,12.475 137.563,12.3083 138.5,13C 137.906,13.4643 137.239,13.631 136.5,13.5 Z"/></g>
<g><path style="opacity:0.006" fill="#feff00" d="M 261.5,13.5 C 261.897,12.475 262.563,12.3083 263.5,13C 262.906,13.4643 262.239,13.631 261.5,13.5 Z"/></g>
<g><path style="opacity:0.004" fill="#ffe925" d="M 266.5,15.5 C 266.897,14.475 267.563,14.3083 268.5,15C 267.906,15.4643 267.239,15.631 266.5,15.5 Z"/></g>
<g><path style="opacity:0.004" fill="#feff00" d="M 128.5,16.5 C 128.897,15.475 129.563,15.3083 130.5,16C 129.906,16.4643 129.239,16.631 128.5,16.5 Z"/></g>
<g><path style="opacity:0.004" fill="#feff00" d="M 269.5,16.5 C 269.897,15.475 270.563,15.3083 271.5,16C 270.906,16.4643 270.239,16.631 269.5,16.5 Z"/></g>
<g><path style="opacity:0.012" fill="#ffc6ff" d="M 125.5,17.5 C 125.897,16.475 126.563,16.3083 127.5,17C 126.906,17.4643 126.239,17.631 125.5,17.5 Z"/></g>
<g><path style="opacity:0.004" fill="#ffe3ff" d="M 272.5,17.5 C 272.897,16.475 273.563,16.3083 274.5,17C 273.906,17.4643 273.239,17.631 272.5,17.5 Z"/></g>
<g><path style="opacity:0.012" fill="#feaa00" d="M 276.5,18.5 C 277.833,19.1667 277.833,19.1667 276.5,18.5 Z"/></g>
<g><path style="opacity:0.008" fill="#fe7f00" d="M 119.5,19.5 C 120.833,20.1667 120.833,20.1667 119.5,19.5 Z"/></g>
<g><path style="opacity:0.008" fill="#fe7f00" d="M 279.5,19.5 C 280.833,20.1667 280.833,20.1667 279.5,19.5 Z"/></g>
<g><path style="opacity:0.016" fill="#febf00" d="M 117.5,20.5 C 118.833,21.1667 118.833,21.1667 117.5,20.5 Z"/></g>
<g><path style="opacity:0.016" fill="#febf00" d="M 281.5,20.5 C 282.833,21.1667 282.833,21.1667 281.5,20.5 Z"/></g>
<g><path style="opacity:0.016" fill="#febf00" d="M 116.5,22.5 C 115.833,21.1667 115.833,21.1667 116.5,22.5 Z"/></g>
<g><path style="opacity:0.016" fill="#febf00" d="M 283.5,21.5 C 284.833,22.1667 284.833,22.1667 283.5,21.5 Z"/></g>
<g><path style="opacity:0.004" fill="#feff00" d="M 114.5,23.5 C 113.833,22.1667 113.833,22.1667 114.5,23.5 Z"/></g>
<g><path style="opacity:0.004" fill="#feff00" d="M 285.5,22.5 C 286.833,23.1667 286.833,23.1667 285.5,22.5 Z"/></g>
<g><path style="opacity:0.008" fill="#ffacfe" d="M 290.5,26.5 C 290.897,25.475 291.563,25.3083 292.5,26C 291.906,26.4643 291.239,26.631 290.5,26.5 Z"/></g>
<g><path style="opacity:0.004" fill="#feff00" d="M 105.5,26.5 C 106.833,27.1667 106.833,27.1667 105.5,26.5 Z"/></g>
<g><path style="opacity:0.004" fill="#feff00" d="M 293.5,26.5 C 294.833,27.1667 294.833,27.1667 293.5,26.5 Z"/></g>
<g><path style="opacity:0.012" fill="#feaa00" d="M 103.5,27.5 C 104.833,28.1667 104.833,28.1667 103.5,27.5 Z"/></g>
<g><path style="opacity:0.012" fill="#feaa00" d="M 296.5,28.5 C 295.833,27.1667 295.833,27.1667 296.5,28.5 Z"/></g>
<g><path style="opacity:0.02" fill="#fe9f32" d="M 103.5,28.5 C 103.5,28.8333 103.5,29.1667 103.5,29.5C 102.83,29.0187 102.83,28.6853 103.5,28.5 Z"/></g>
<g><path style="opacity:0.02" fill="#fe9f32" d="M 296.5,28.5 C 297.833,29.1667 297.833,29.1667 296.5,28.5 Z"/></g>
<g><path style="opacity:0.004" fill="#feff00" d="M 101.5,30.5 C 100.833,29.1667 100.833,29.1667 101.5,30.5 Z"/></g>
<g><path style="opacity:0.004" fill="#feff00" d="M 298.5,29.5 C 299.833,30.1667 299.833,30.1667 298.5,29.5 Z"/></g>
<g><path style="opacity:0.008" fill="#feff00" d="M 98.5,30.5 C 99.8333,31.1667 99.8333,31.1667 98.5,30.5 Z"/></g>
<g><path style="opacity:0.008" fill="#feff00" d="M 300.5,30.5 C 301.833,31.1667 301.833,31.1667 300.5,30.5 Z"/></g>
<g><path style="opacity:0.996" fill="#f89a1e" d="M 221.5,37.5 C 226.707,38.4919 232.04,39.4919 237.5,40.5C 240.937,41.9448 244.603,42.9448 248.5,43.5C 249.209,44.404 250.209,44.7373 251.5,44.5C 253.214,45.7384 255.214,46.405 257.5,46.5C 257.842,47.3382 258.508,47.6716 259.5,47.5C 260.209,48.404 261.209,48.7373 262.5,48.5C 264.426,50.2927 266.759,51.2927 269.5,51.5C 269.842,52.3382 270.508,52.6716 271.5,52.5C 272.514,53.6737 273.847,54.3404 275.5,54.5C 276.659,56.2503 278.326,57.2503 280.5,57.5C 280.842,58.3382 281.508,58.6716 282.5,58.5C 282.973,59.9063 283.973,60.573 285.5,60.5C 286.29,61.4013 287.29,62.0679 288.5,62.5C 288.842,63.3382 289.508,63.6716 290.5,63.5C 291.436,64.9744 292.77,65.9744 294.5,66.5C 294.973,67.9063 295.973,68.573 297.5,68.5C 299.091,70.6326 301.091,72.2993 303.5,73.5C 304.262,75.2624 305.596,76.2624 307.5,76.5C 312.167,81.8333 317.167,86.8333 322.5,91.5C 322.738,93.4044 323.738,94.7377 325.5,95.5C 325.833,96.5 326.5,97.1667 327.5,97.5C 327.427,99.0269 328.094,100.027 329.5,100.5C 331.147,103.473 333.147,106.14 335.5,108.5C 335.427,110.027 336.094,111.027 337.5,111.5C 339,115.173 341,118.506 343.5,121.5C 343.328,122.492 343.662,123.158 344.5,123.5C 344.328,124.492 344.662,125.158 345.5,125.5C 345.328,126.492 345.662,127.158 346.5,127.5C 346.66,129.153 347.326,130.486 348.5,131.5C 348.328,132.492 348.662,133.158 349.5,133.5C 349.402,135.553 350.069,137.22 351.5,138.5C 351.263,139.791 351.596,140.791 352.5,141.5C 352.328,142.492 352.662,143.158 353.5,143.5C 353.595,145.786 354.262,147.786 355.5,149.5C 355.263,150.791 355.596,151.791 356.5,152.5C 356.263,153.791 356.596,154.791 357.5,155.5C 357.42,158.781 358.087,161.781 359.5,164.5C 359.232,166.099 359.566,167.432 360.5,168.5C 360.782,174.021 361.449,179.354 362.5,184.5C 362.5,194.5 362.5,204.5 362.5,214.5C 361.449,219.646 360.782,224.979 360.5,230.5C 359.566,231.568 359.232,232.901 359.5,234.5C 358.087,237.219 357.42,240.219 357.5,243.5C 356.262,245.214 355.595,247.214 355.5,249.5C 354.262,251.214 353.595,253.214 353.5,255.5C 352.662,255.842 352.328,256.508 352.5,257.5C 351.596,258.209 351.263,259.209 351.5,260.5C 350.596,261.209 350.263,262.209 350.5,263.5C 349.326,264.514 348.66,265.847 348.5,267.5C 346.992,269.181 345.992,271.181 345.5,273.5C 344.662,273.842 344.328,274.508 344.5,275.5C 343.662,275.842 343.328,276.508 343.5,277.5C 341.412,279.336 340.079,281.669 339.5,284.5C 338.094,284.973 337.427,285.973 337.5,287.5C 336.662,287.842 336.328,288.508 336.5,289.5C 335.026,290.436 334.026,291.77 333.5,293.5C 332.094,293.973 331.427,294.973 331.5,296.5C 329.367,298.091 327.701,300.091 326.5,302.5C 325.094,302.973 324.427,303.973 324.5,305.5C 322.167,307.167 320.167,309.167 318.5,311.5C 315.5,313.833 312.833,316.5 310.5,319.5C 308.5,320.833 306.833,322.5 305.5,324.5C 303.973,324.427 302.973,325.094 302.5,326.5C 300.091,327.701 298.091,329.367 296.5,331.5C 294.973,331.427 293.973,332.094 293.5,333.5C 291.77,334.026 290.436,335.026 289.5,336.5C 288.508,336.328 287.842,336.662 287.5,337.5C 285.973,337.427 284.973,338.094 284.5,339.5C 281.669,340.079 279.336,341.412 277.5,343.5C 276.508,343.328 275.842,343.662 275.5,344.5C 274.508,344.328 273.842,344.662 273.5,345.5C 271.181,345.992 269.181,346.992 267.5,348.5C 265.847,348.66 264.514,349.326 263.5,350.5C 262.209,350.263 261.209,350.596 260.5,351.5C 259.209,351.263 258.209,351.596 257.5,352.5C 256.508,352.328 255.842,352.662 255.5,353.5C 253.214,353.595 251.214,354.262 249.5,355.5C 247.214,355.595 245.214,356.262 243.5,357.5C 240.219,357.42 237.219,358.087 234.5,359.5C 232.901,359.232 231.568,359.566 230.5,360.5C 224.979,360.782 219.646,361.449 214.5,362.5C 204.5,362.5 194.5,362.5 184.5,362.5C 177.967,361.507 171.301,360.507 164.5,359.5C 160.761,357.898 156.761,356.898 152.5,356.5C 149.854,354.747 146.854,353.747 143.5,353.5C 143.158,352.662 142.492,352.328 141.5,352.5C 140.791,351.596 139.791,351.263 138.5,351.5C 137.22,350.069 135.553,349.402 133.5,349.5C 133.158,348.662 132.492,348.328 131.5,348.5C 130.486,347.326 129.153,346.66 127.5,346.5C 127.158,345.662 126.492,345.328 125.5,345.5C 125.158,344.662 124.492,344.328 123.5,344.5C 123.158,343.662 122.492,343.328 121.5,343.5C 118.506,341 115.173,339 111.5,337.5C 111.027,336.094 110.027,335.427 108.5,335.5C 106.14,333.147 103.473,331.147 100.5,329.5C 100.027,328.094 99.0269,327.427 97.5,327.5C 97.1667,326.5 96.5,325.833 95.5,325.5C 95.0269,324.094 94.0269,323.427 92.5,323.5C 87.5,317.833 82.1667,312.5 76.5,307.5C 76.2624,305.596 75.2624,304.262 73.5,303.5C 72.2993,301.091 70.6326,299.091 68.5,297.5C 68.573,295.973 67.9063,294.973 66.5,294.5C 65.9744,292.77 64.9744,291.436 63.5,290.5C 63.6716,289.508 63.3382,288.842 62.5,288.5C 61.9744,286.77 60.9744,285.436 59.5,284.5C 59.6716,283.508 59.3382,282.842 58.5,282.5C 58.6716,281.508 58.3382,280.842 57.5,280.5C 57.573,278.973 56.9063,277.973 55.5,277.5C 55.6716,276.508 55.3382,275.842 54.5,275.5C 54.3404,273.847 53.6737,272.514 52.5,271.5C 52.6716,270.508 52.3382,269.842 51.5,269.5C 51.2927,266.759 50.2927,264.426 48.5,262.5C 48.7373,261.209 48.404,260.209 47.5,259.5C 47.6716,258.508 47.3382,257.842 46.5,257.5C 46.405,255.214 45.7384,253.214 44.5,251.5C 44.5979,249.447 43.9313,247.78 42.5,246.5C 42.5797,243.219 41.913,240.219 40.5,237.5C 40.7373,236.209 40.404,235.209 39.5,234.5C 39.2296,229.972 38.5629,225.639 37.5,221.5C 36.1667,206.833 36.1667,192.167 37.5,177.5C 38.4919,172.293 39.4919,166.96 40.5,161.5C 41.9448,158.063 42.9448,154.397 43.5,150.5C 44.404,149.791 44.7373,148.791 44.5,147.5C 45.7384,145.786 46.405,143.786 46.5,141.5C 47.3382,141.158 47.6716,140.492 47.5,139.5C 48.404,138.791 48.7373,137.791 48.5,136.5C 49.6737,135.486 50.3404,134.153 50.5,132.5C 51.3382,132.158 51.6716,131.492 51.5,130.5C 52.9313,129.22 53.5979,127.553 53.5,125.5C 54.9063,125.027 55.573,124.027 55.5,122.5C 56.3382,122.158 56.6716,121.492 56.5,120.5C 58.0828,118.337 59.4161,116.004 60.5,113.5C 61.9063,113.027 62.573,112.027 62.5,110.5C 63.3382,110.158 63.6716,109.492 63.5,108.5C 64.1667,108.5 64.5,108.167 64.5,107.5C 65.1667,107.5 65.5,107.167 65.5,106.5C 67.3998,104.381 69.0664,102.047 70.5,99.5C 71.9063,99.0269 72.573,98.0269 72.5,96.5C 73.8333,95.8333 74.8333,94.8333 75.5,93.5C 76.1667,93.5 76.5,93.1667 76.5,92.5C 77.3382,92.1583 77.6716,91.4916 77.5,90.5C 82.1667,86.5 86.5,82.1667 90.5,77.5C 92.0269,77.573 93.0269,76.9063 93.5,75.5C 94.8333,74.8333 95.8333,73.8333 96.5,72.5C 98.0269,72.573 99.0269,71.9063 99.5,70.5C 102.047,69.0664 104.381,67.3998 106.5,65.5C 107.167,65.5 107.5,65.1667 107.5,64.5C 109.027,64.573 110.027,63.9063 110.5,62.5C 112.027,62.573 113.027,61.9063 113.5,60.5C 115.434,59.8897 117.101,58.8897 118.5,57.5C 120.153,57.3404 121.486,56.6737 122.5,55.5C 124.027,55.573 125.027,54.9063 125.5,53.5C 127.553,53.5979 129.22,52.9313 130.5,51.5C 131.492,51.6716 132.158,51.3382 132.5,50.5C 134.153,50.3404 135.486,49.6737 136.5,48.5C 137.791,48.7373 138.791,48.404 139.5,47.5C 140.492,47.6716 141.158,47.3382 141.5,46.5C 143.786,46.405 145.786,45.7384 147.5,44.5C 149.786,44.405 151.786,43.7384 153.5,42.5C 156.428,42.4349 159.095,41.7682 161.5,40.5C 163.099,40.7678 164.432,40.4345 165.5,39.5C 169.684,39.1491 173.684,38.4824 177.5,37.5C 192.167,36.1667 206.833,36.1667 221.5,37.5 Z"/></g>
<g><path style="opacity:0.016" fill="#fe7f00" d="M 313.5,39.5 C 314.833,40.1667 314.833,40.1667 313.5,39.5 Z"/></g>
<g><path style="opacity:0.004" fill="#feff00" d="M 83.5,40.5 C 84.8333,41.1667 84.8333,41.1667 83.5,40.5 Z"/></g>
<g><path style="opacity:0.004" fill="#feff00" d="M 315.5,40.5 C 316.833,41.1667 316.833,41.1667 315.5,40.5 Z"/></g>
<g><path style="opacity:0.008" fill="#fe7f00" d="M 322.5,46.5 C 323.833,47.1667 323.833,47.1667 322.5,46.5 Z"/></g>
<g><path style="opacity:0.004" fill="#ffee00" d="M 107.5,63.5 C 107.5,63.8333 107.5,64.1667 107.5,64.5C 106.833,64.5 106.5,64.8333 106.5,65.5C 105.833,65.5 105.167,65.5 104.5,65.5C 104.973,64.0937 105.973,63.427 107.5,63.5 Z"/></g>
<g><path style="opacity:0.008" fill="#fe7f00" d="M 351.5,74.5 C 352.833,75.1667 352.833,75.1667 351.5,74.5 Z"/></g>
<g><path style="opacity:0.004" fill="#feff00" d="M 68.5,79.5 C 68.8333,79.5 69.1667,79.5 69.5,79.5C 69.573,81.0269 68.9063,82.0269 67.5,82.5C 67.5,81.8333 67.5,81.1667 67.5,80.5C 68.1667,80.5 68.5,80.1667 68.5,79.5 Z"/></g>
<g><path style="opacity:0.004" fill="#feff00" d="M 330.5,79.5 C 330.833,79.5 331.167,79.5 331.5,79.5C 331.5,80.1667 331.833,80.5 332.5,80.5C 332.5,81.1667 332.5,81.8333 332.5,82.5C 331.094,82.0269 330.427,81.0269 330.5,79.5 Z"/></g>
<g><path style="opacity:0.004" fill="#feff00" d="M 358.5,83.5 C 359.833,84.1667 359.833,84.1667 358.5,83.5 Z"/></g>
<g><path style="opacity:0.004" fill="#ffea00" d="M 76.5,92.5 C 75.8333,92.5 75.5,92.8333 75.5,93.5C 75.1667,93.5 74.8333,93.5 74.5,93.5C 74.7107,91.5759 75.3774,91.2426 76.5,92.5 Z"/></g>
<g><path style="opacity:0.012" fill="#ffc6ff" d="M 32.5,98.5 C 32.1667,98.5 31.8333,98.5 31.5,98.5C 31.8333,95.8333 32.1667,95.8333 32.5,98.5 Z"/></g>
<g><path style="opacity:0.012" fill="#ffc6ff" d="M 368.5,98.5 C 368.167,98.5 367.833,98.5 367.5,98.5C 367.833,95.8333 368.167,95.8333 368.5,98.5 Z"/></g>
<g><path style="opacity:0.008" fill="#feff00" d="M 31.5,98.5 C 30.8333,99.1667 30.8333,99.1667 31.5,98.5 Z"/></g>
<g><path style="opacity:0.008" fill="#feff00" d="M 368.5,98.5 C 369.833,99.1667 369.833,99.1667 368.5,98.5 Z"/></g>
<g><path style="opacity:0.004" fill="#feff00" d="M 30.5,101.5 C 29.8333,100.167 29.8333,100.167 30.5,101.5 Z"/></g>
<g><path style="opacity:0.004" fill="#feff00" d="M 369.5,100.5 C 370.833,101.167 370.833,101.167 369.5,100.5 Z"/></g>
<g><path style="opacity:0.016" fill="#febf3e" d="M 29.5,103.5 C 28.8333,102.167 28.8333,102.167 29.5,103.5 Z"/></g>
<g><path style="opacity:0.02" fill="#fe9f32" d="M 371.5,103.5 C 370.833,102.167 370.833,102.167 371.5,103.5 Z"/></g>
<g><path style="opacity:0.012" fill="#feaa00" d="M 28.5,103.5 C 27.8333,104.167 27.8333,104.167 28.5,103.5 Z"/></g>
<g><path style="opacity:0.012" fill="#feaa00" d="M 371.5,103.5 C 372.833,104.167 372.833,104.167 371.5,103.5 Z"/></g>
<g><path style="opacity:0.004" fill="#ffee00" d="M 65.5,104.5 C 65.5,105.167 65.5,105.833 65.5,106.5C 64.8333,106.5 64.5,106.833 64.5,107.5C 64.1667,107.5 63.8333,107.5 63.5,107.5C 63.427,105.973 64.0937,104.973 65.5,104.5 Z"/></g>
<g><path style="opacity:0.004" fill="#feff00" d="M 26.5,105.5 C 27.8333,106.167 27.8333,106.167 26.5,105.5 Z"/></g>
<g><path style="opacity:0.004" fill="#feff00" d="M 372.5,105.5 C 373.833,106.167 373.833,106.167 372.5,105.5 Z"/></g>
<g><path style="opacity:0.006" fill="#feff00" d="M 375.5,112.5 C 375.369,111.761 375.536,111.094 376,110.5C 376.692,111.437 376.525,112.103 375.5,112.5 Z"/></g>
<g><path style="opacity:0.004" fill="#feff00" d="M 23.5,114.5 C 22.8333,113.167 22.8333,113.167 23.5,114.5 Z"/></g>
<g><path style="opacity:0.004" fill="#feff00" d="M 376.5,113.5 C 377.833,114.167 377.833,114.167 376.5,113.5 Z"/></g>
<g><path style="opacity:0.016" fill="#ffd434" d="M 21.5,118.5 C 21.1667,118.5 20.8333,118.5 20.5,118.5C 20.8333,115.833 21.1667,115.833 21.5,118.5 Z"/></g>
<g><path style="opacity:0.016" fill="#ffd434" d="M 379.5,118.5 C 379.167,118.5 378.833,118.5 378.5,118.5C 378.833,115.833 379.167,115.833 379.5,118.5 Z"/></g>
<g><path style="opacity:1" fill="#fabc6a" d="M 94.5,119.5 C 164.335,118.168 234.335,118.168 304.5,119.5C 304.376,120.107 304.043,120.44 303.5,120.5C 234.002,119.501 164.335,119.167 94.5,119.5 Z"/></g>
<g><path style="opacity:0.008" fill="#ffacfe" d="M 20.5,118.5 C 20.631,119.239 20.4643,119.906 20,120.5C 19.3083,119.563 19.475,118.897 20.5,118.5 Z"/></g>
<g><path style="opacity:1" fill="#fefefe" d="M 94.5,119.5 C 164.335,119.167 234.002,119.501 303.5,120.5C 271.701,151.799 240.035,183.299 208.5,215C 200.961,220.066 193.961,219.399 187.5,213C 156.298,181.965 125.298,150.799 94.5,119.5 Z"/></g>
<g><path style="opacity:0.008" fill="#ffacfe" d="M 379.5,118.5 C 380.525,118.897 380.692,119.563 380,120.5C 379.536,119.906 379.369,119.239 379.5,118.5 Z"/></g>
<g><path style="opacity:0.016" fill="#ffd434" d="M 18.5,125.5 C 18.1667,125.5 17.8333,125.5 17.5,125.5C 17.8333,122.833 18.1667,122.833 18.5,125.5 Z"/></g>
<g><path style="opacity:0.016" fill="#ffd434" d="M 382.5,125.5 C 382.167,125.5 381.833,125.5 381.5,125.5C 381.833,122.833 382.167,122.833 382.5,125.5 Z"/></g>
<g><path style="opacity:0.012" fill="#ffc6ff" d="M 17.5,125.5 C 17.631,126.239 17.4643,126.906 17,127.5C 16.3083,126.563 16.475,125.897 17.5,125.5 Z"/></g>
<g><path style="opacity:0.012" fill="#ffc6ff" d="M 382.5,125.5 C 383.525,125.897 383.692,126.563 383,127.5C 382.536,126.906 382.369,126.239 382.5,125.5 Z"/></g>
<g><path style="opacity:1" fill="#f9b459" d="M 311.5,128.5 C 311.56,127.957 311.893,127.624 312.5,127.5C 313.833,175.5 313.833,223.5 312.5,271.5C 311.893,271.376 311.56,271.043 311.5,270.5C 312.833,223.167 312.833,175.833 311.5,128.5 Z"/></g>
<g><path style="opacity:0.004" fill="#feff00" d="M 15.5,128.5 C 16.525,128.897 16.6917,129.563 16,130.5C 15.5357,129.906 15.369,129.239 15.5,128.5 Z"/></g>
<g><path style="opacity:1" fill="#fefefe" d="M 311.5,128.5 C 312.833,175.833 312.833,223.167 311.5,270.5C 288.188,246.854 264.854,223.188 241.5,199.5C 264.854,175.812 288.188,152.146 311.5,128.5 Z"/></g>
<g><path style="opacity:0.004" fill="#feff00" d="M 383.5,128.5 C 384.525,128.897 384.692,129.563 384,130.5C 383.536,129.906 383.369,129.239 383.5,128.5 Z"/></g>
<g><path style="opacity:1" fill="#fefefd" d="M 87.5,129.5 C 111.146,152.479 134.479,175.812 157.5,199.5C 134.479,223.188 111.146,246.521 87.5,269.5C 86.1667,222.833 86.1667,176.167 87.5,129.5 Z"/></g>
<g><path style="opacity:1" fill="#fde4c6" d="M 87.5,129.5 C 86.1667,176.167 86.1667,222.833 87.5,269.5C 87.2172,270.289 86.7172,270.956 86,271.5C 85.3333,223.5 85.3333,175.5 86,127.5C 86.7172,128.044 87.2172,128.711 87.5,129.5 Z"/></g>
<g><path style="opacity:0.016" fill="#ffdf2d" d="M 14.5,136.5 C 14.1667,136.5 13.8333,136.5 13.5,136.5C 13.8333,132.5 14.1667,132.5 14.5,136.5 Z"/></g>
<g><path style="opacity:0.016" fill="#ffdf2d" d="M 386.5,136.5 C 386.167,136.5 385.833,136.5 385.5,136.5C 385.833,132.5 386.167,132.5 386.5,136.5 Z"/></g>
<g><path style="opacity:0.008" fill="#fe7f00" d="M 13.5,136.5 C 13.631,137.239 13.4643,137.906 13,138.5C 12.3083,137.563 12.475,136.897 13.5,136.5 Z"/></g>
<g><path style="opacity:0.008" fill="#fe7f00" d="M 386.5,136.5 C 387.525,136.897 387.692,137.563 387,138.5C 386.536,137.906 386.369,137.239 386.5,136.5 Z"/></g>
<g><path style="opacity:0.008" fill="#ffacfe" d="M 12.5,142.5 C 11.475,142.103 11.3083,141.437 12,140.5C 12.4643,141.094 12.631,141.761 12.5,142.5 Z"/></g>
<g><path style="opacity:0.008" fill="#ffacfe" d="M 387.5,142.5 C 387.369,141.761 387.536,141.094 388,140.5C 388.692,141.437 388.525,142.103 387.5,142.5 Z"/></g>
<g><path style="opacity:0.02" fill="#ffa228" d="M 11.5,145.5 C 11.1667,145.5 10.8333,145.5 10.5,145.5C 10.8333,142.833 11.1667,142.833 11.5,145.5 Z"/></g>
<g><path style="opacity:0.02" fill="#ffa228" d="M 389.5,145.5 C 389.167,145.5 388.833,145.5 388.5,145.5C 388.833,142.833 389.167,142.833 389.5,145.5 Z"/></g>
<g><path style="opacity:0.012" fill="#ffb5ff" d="M 10.5,145.5 C 10.6495,146.552 10.4828,147.552 10,148.5C 9.25988,147.251 9.42654,146.251 10.5,145.5 Z"/></g>
<g><path style="opacity:0.012" fill="#ffb5ff" d="M 389.5,145.5 C 390.573,146.251 390.74,147.251 390,148.5C 389.517,147.552 389.351,146.552 389.5,145.5 Z"/></g>
<g><path style="opacity:0.004" fill="#feff00" d="M 8.5,149.5 C 9.52502,149.897 9.69169,150.563 9,151.5C 8.53566,150.906 8.36899,150.239 8.5,149.5 Z"/></g>
<g><path style="opacity:0.004" fill="#feff00" d="M 390.5,149.5 C 391.525,149.897 391.692,150.563 391,151.5C 390.536,150.906 390.369,150.239 390.5,149.5 Z"/></g>
<g><path style="opacity:0.006" fill="#ffef1f" d="M 7.5,154.5 C 8.57346,155.251 8.74012,156.251 8,157.5C 7.51722,156.552 7.35055,155.552 7.5,154.5 Z"/></g>
<g><path style="opacity:0.006" fill="#ffef1f" d="M 391.5,154.5 C 392.573,155.251 392.74,156.251 392,157.5C 391.517,156.552 391.351,155.552 391.5,154.5 Z"/></g>
<g><path style="opacity:0.016" fill="#ffd22f" d="M 7.5,162.5 C 7.16667,162.5 6.83333,162.5 6.5,162.5C 6.83333,157.167 7.16667,157.167 7.5,162.5 Z"/></g>
<g><path style="opacity:0.016" fill="#ffd215" d="M 393.5,162.5 C 393.167,162.5 392.833,162.5 392.5,162.5C 392.833,157.167 393.167,157.167 393.5,162.5 Z"/></g>
<g><path style="opacity:0.006" fill="#ffee00" d="M 6.5,162.5 C 6.65668,163.873 6.49001,165.207 6,166.5C 5.23502,164.934 5.40168,163.601 6.5,162.5 Z"/></g>
<g><path style="opacity:0.006" fill="#ffee00" d="M 393.5,162.5 C 394.598,163.601 394.765,164.934 394,166.5C 393.51,165.207 393.343,163.873 393.5,162.5 Z"/></g>
<g><path style="opacity:0.004" fill="#feff00" d="M 5.5,175.5 C 4.38705,174.054 4.22039,172.387 5,170.5C 5.49351,172.134 5.66018,173.801 5.5,175.5 Z"/></g>
<g><path style="opacity:0.004" fill="#feff00" d="M 394.5,170.5 C 395.613,171.946 395.78,173.613 395,175.5C 394.506,173.866 394.34,172.199 394.5,170.5 Z"/></g>
<g><path style="opacity:0.016" fill="#ffba2a" d="M 3.5,215.5 C 2.34147,205.342 2.1748,195.008 3,184.5C 3.49983,194.828 3.66649,205.161 3.5,215.5 Z"/></g>
<g><path style="opacity:0.016" fill="#ffba2a" d="M 396.5,215.5 C 396.334,205.161 396.5,194.828 397,184.5C 397.825,195.008 397.659,205.342 396.5,215.5 Z"/></g>
<g><path style="opacity:1" fill="#fefefe" d="M 303.5,278.5 C 234.002,279.499 164.335,279.833 94.5,279.5C 118.132,255.368 141.965,231.368 166,207.5C 174.044,217.222 183.544,225.055 194.5,231C 200.813,232.337 206.48,231.004 211.5,227C 218.167,221 224.833,215 231.5,209C 232.167,208.333 232.833,208.333 233.5,209C 256.701,232.368 280.035,255.535 303.5,278.5 Z"/></g>
<g><path style="opacity:0.012" fill="#ffb11b" d="M 3.5,215.5 C 3.83333,215.5 4.16667,215.5 4.5,215.5C 4.16667,226.167 3.83333,226.167 3.5,215.5 Z"/></g>
<g><path style="opacity:0.012" fill="#ffb11b" d="M 395.5,215.5 C 395.833,215.5 396.167,215.5 396.5,215.5C 396.167,226.167 395.833,226.167 395.5,215.5 Z"/></g>
<g><path style="opacity:0.004" fill="#feff00" d="M 5.5,224.5 C 5.66018,226.199 5.49351,227.866 5,229.5C 4.22039,227.613 4.38705,225.946 5.5,224.5 Z"/></g>
<g><path style="opacity:0.004" fill="#feff00" d="M 394.5,224.5 C 395.613,225.946 395.78,227.613 395,229.5C 394.506,227.866 394.34,226.199 394.5,224.5 Z"/></g>
<g><path style="opacity:0.006" fill="#ffec00" d="M 6.5,237.5 C 5.40168,236.399 5.23502,235.066 6,233.5C 6.49001,234.793 6.65668,236.127 6.5,237.5 Z"/></g>
<g><path style="opacity:0.006" fill="#ffec00" d="M 393.5,237.5 C 393.343,236.127 393.51,234.793 394,233.5C 394.765,235.066 394.598,236.399 393.5,237.5 Z"/></g>
<g><path style="opacity:0.02" fill="#ffcc2c" d="M 6.5,237.5 C 6.83333,237.5 7.16667,237.5 7.5,237.5C 7.16667,242.833 6.83333,242.833 6.5,237.5 Z"/></g>
<g><path style="opacity:0.02" fill="#ffcc2c" d="M 392.5,237.5 C 392.833,237.5 393.167,237.5 393.5,237.5C 393.167,242.833 392.833,242.833 392.5,237.5 Z"/></g>
<g><path style="opacity:0.006" fill="#ffef1f" d="M 7.5,242.5 C 8.57346,243.251 8.74012,244.251 8,245.5C 7.51722,244.552 7.35055,243.552 7.5,242.5 Z"/></g>
<g><path style="opacity:0.006" fill="#ffef1f" d="M 391.5,242.5 C 392.573,243.251 392.74,244.251 392,245.5C 391.517,244.552 391.351,243.552 391.5,242.5 Z"/></g>
<g><path style="opacity:0.004" fill="#feff00" d="M 8.5,248.5 C 9.52502,248.897 9.69169,249.563 9,250.5C 8.53566,249.906 8.36899,249.239 8.5,248.5 Z"/></g>
<g><path style="opacity:0.004" fill="#feff00" d="M 390.5,248.5 C 391.525,248.897 391.692,249.563 391,250.5C 390.536,249.906 390.369,249.239 390.5,248.5 Z"/></g>
<g><path style="opacity:0.012" fill="#ffb5ff" d="M 10.5,254.5 C 9.42654,253.749 9.25988,252.749 10,251.5C 10.4828,252.448 10.6495,253.448 10.5,254.5 Z"/></g>
<g><path style="opacity:0.012" fill="#ffb5ff" d="M 389.5,254.5 C 389.351,253.448 389.517,252.448 390,251.5C 390.74,252.749 390.573,253.749 389.5,254.5 Z"/></g>
<g><path style="opacity:0.012" fill="#ffa61a" d="M 10.5,254.5 C 10.8333,254.5 11.1667,254.5 11.5,254.5C 11.1667,257.167 10.8333,257.167 10.5,254.5 Z"/></g>
<g><path style="opacity:0.012" fill="#ffa61a" d="M 388.5,254.5 C 388.833,254.5 389.167,254.5 389.5,254.5C 389.167,257.167 388.833,257.167 388.5,254.5 Z"/></g>
<g><path style="opacity:0.004" fill="#ffd6fe" d="M 12.5,257.5 C 12.631,258.239 12.4643,258.906 12,259.5C 11.3083,258.563 11.475,257.897 12.5,257.5 Z"/></g>
<g><path style="opacity:0.004" fill="#ffd6fe" d="M 387.5,257.5 C 388.525,257.897 388.692,258.563 388,259.5C 387.536,258.906 387.369,258.239 387.5,257.5 Z"/></g>
<g><path style="opacity:0.008" fill="#fe7f00" d="M 13.5,263.5 C 12.475,263.103 12.3083,262.437 13,261.5C 13.4643,262.094 13.631,262.761 13.5,263.5 Z"/></g>
<g><path style="opacity:0.008" fill="#fe7f00" d="M 386.5,263.5 C 386.369,262.761 386.536,262.094 387,261.5C 387.692,262.437 387.525,263.103 386.5,263.5 Z"/></g>
<g><path style="opacity:0.016" fill="#ffdf2d" d="M 13.5,263.5 C 13.8333,263.5 14.1667,263.5 14.5,263.5C 14.5,264.5 14.5,265.5 14.5,266.5C 13.596,265.791 13.2627,264.791 13.5,263.5 Z"/></g>
<g><path style="opacity:0.016" fill="#ffdf2d" d="M 385.5,263.5 C 385.833,263.5 386.167,263.5 386.5,263.5C 386.737,264.791 386.404,265.791 385.5,266.5C 385.5,265.5 385.5,264.5 385.5,263.5 Z"/></g>
<g><path style="opacity:0.004" fill="#ffe925" d="M 14.5,266.5 C 14.8333,266.5 15.1667,266.5 15.5,266.5C 15.1667,269.167 14.8333,269.167 14.5,266.5 Z"/></g>
<g><path style="opacity:0.004" fill="#ffe925" d="M 384.5,266.5 C 384.833,266.5 385.167,266.5 385.5,266.5C 385.167,269.167 384.833,269.167 384.5,266.5 Z"/></g>
<g><path style="opacity:0.004" fill="#feff00" d="M 15.5,269.5 C 16.525,269.897 16.6917,270.563 16,271.5C 15.5357,270.906 15.369,270.239 15.5,269.5 Z"/></g>
<g><path style="opacity:0.004" fill="#feff00" d="M 383.5,269.5 C 384.525,269.897 384.692,270.563 384,271.5C 383.536,270.906 383.369,270.239 383.5,269.5 Z"/></g>
<g><path style="opacity:0.004" fill="#ffe3ff" d="M 17.5,274.5 C 16.475,274.103 16.3083,273.437 17,272.5C 17.4643,273.094 17.631,273.761 17.5,274.5 Z"/></g>
<g><path style="opacity:0.004" fill="#ffe3ff" d="M 382.5,274.5 C 382.369,273.761 382.536,273.094 383,272.5C 383.692,273.437 383.525,274.103 382.5,274.5 Z"/></g>
<g><path style="opacity:0.004" fill="#ffe925" d="M 17.5,274.5 C 17.8333,274.5 18.1667,274.5 18.5,274.5C 18.5,275.167 18.5,275.833 18.5,276.5C 17.6618,276.158 17.3284,275.492 17.5,274.5 Z"/></g>
<g><path style="opacity:0.004" fill="#ffe925" d="M 381.5,274.5 C 381.833,274.5 382.167,274.5 382.5,274.5C 382.672,275.492 382.338,276.158 381.5,276.5C 381.5,275.833 381.5,275.167 381.5,274.5 Z"/></g>
<g><path style="opacity:0.012" fill="#feaa00" d="M 18.5,276.5 C 18.8333,276.5 19.1667,276.5 19.5,276.5C 19.3147,277.17 18.9813,277.17 18.5,276.5 Z"/></g>
<g><path style="opacity:0.012" fill="#feaa00" d="M 380.5,276.5 C 380.833,276.5 381.167,276.5 381.5,276.5C 381.315,277.17 380.981,277.17 380.5,276.5 Z"/></g>
<g><path style="opacity:1" fill="#faba66" d="M 303.5,278.5 C 304.043,278.56 304.376,278.893 304.5,279.5C 234.335,280.832 164.335,280.832 94.5,279.5C 164.335,279.833 234.002,279.499 303.5,278.5 Z"/></g>
<g><path style="opacity:0.004" fill="#feff00" d="M 379.5,281.5 C 379.369,280.761 379.536,280.094 380,279.5C 380.692,280.437 380.525,281.103 379.5,281.5 Z"/></g>
<g><path style="opacity:0.004" fill="#ffd6fe" d="M 20.5,281.5 C 19.475,281.103 19.3083,280.437 20,279.5C 20.4643,280.094 20.631,280.761 20.5,281.5 Z"/></g>
<g><path style="opacity:0.004" fill="#ffe925" d="M 20.5,281.5 C 20.8333,281.5 21.1667,281.5 21.5,281.5C 21.5,282.167 21.5,282.833 21.5,283.5C 20.6618,283.158 20.3284,282.492 20.5,281.5 Z"/></g>
<g><path style="opacity:0.004" fill="#ffe925" d="M 378.5,281.5 C 378.833,281.5 379.167,281.5 379.5,281.5C 379.672,282.492 379.338,283.158 378.5,283.5C 378.5,282.833 378.5,282.167 378.5,281.5 Z"/></g>
<g><path style="opacity:0.016" fill="#febf3e" d="M 21.5,283.5 C 21.8333,283.5 22.1667,283.5 22.5,283.5C 22.3147,284.17 21.9813,284.17 21.5,283.5 Z"/></g>
<g><path style="opacity:0.016" fill="#febf3e" d="M 377.5,283.5 C 377.833,283.5 378.167,283.5 378.5,283.5C 378.315,284.17 377.981,284.17 377.5,283.5 Z"/></g>
<g><path style="opacity:0.004" fill="#feff00" d="M 23.5,285.5 C 22.8333,286.167 22.8333,286.167 23.5,285.5 Z"/></g>
<g><path style="opacity:0.004" fill="#feff00" d="M 376.5,285.5 C 377.833,286.167 377.833,286.167 376.5,285.5 Z"/></g>
<g><path style="opacity:0.004" fill="#ffd6fe" d="M 24.5,287.5 C 24.5,288.167 24.5,288.833 24.5,289.5C 23.1667,288.833 23.1667,288.167 24.5,287.5 Z"/></g>
<g><path style="opacity:0.004" fill="#ffd6fe" d="M 375.5,287.5 C 376.833,288.167 376.833,288.833 375.5,289.5C 375.5,288.833 375.5,288.167 375.5,287.5 Z"/></g>
<g><path style="opacity:0.02" fill="#fe9f32" d="M 24.5,289.5 C 24.8333,289.5 25.1667,289.5 25.5,289.5C 25.3147,290.17 24.9813,290.17 24.5,289.5 Z"/></g>
<g><path style="opacity:0.02" fill="#fe9f32" d="M 374.5,289.5 C 374.833,289.5 375.167,289.5 375.5,289.5C 375.315,290.17 374.981,290.17 374.5,289.5 Z"/></g>
<g><path style="opacity:0.008" fill="#feff00" d="M 26.5,291.5 C 25.8333,292.167 25.8333,292.167 26.5,291.5 Z"/></g>
<g><path style="opacity:0.008" fill="#feff00" d="M 373.5,291.5 C 374.833,292.167 374.833,292.167 373.5,291.5 Z"/></g>
<g><path style="opacity:0.004" fill="#feff00" d="M 26.5,293.5 C 27.8333,294.167 27.8333,294.167 26.5,293.5 Z"/></g>
<g><path style="opacity:0.004" fill="#feff00" d="M 372.5,293.5 C 373.833,294.167 373.833,294.167 372.5,293.5 Z"/></g>
<g><path style="opacity:0.012" fill="#feaa00" d="M 28.5,296.5 C 27.8333,295.167 27.8333,295.167 28.5,296.5 Z"/></g>
<g><path style="opacity:0.012" fill="#feaa00" d="M 371.5,295.5 C 372.833,296.167 372.833,296.167 371.5,295.5 Z"/></g>
<g><path style="opacity:0.016" fill="#febf3e" d="M 28.5,296.5 C 28.8333,296.5 29.1667,296.5 29.5,296.5C 29.3147,297.17 28.9813,297.17 28.5,296.5 Z"/></g>
<g><path style="opacity:0.016" fill="#febf3e" d="M 370.5,296.5 C 370.833,296.5 371.167,296.5 371.5,296.5C 371.315,297.17 370.981,297.17 370.5,296.5 Z"/></g>
<g><path style="opacity:0.004" fill="#feff00" d="M 30.5,298.5 C 29.8333,299.167 29.8333,299.167 30.5,298.5 Z"/></g>
<g><path style="opacity:0.004" fill="#feff00" d="M 369.5,298.5 C 370.833,299.167 370.833,299.167 369.5,298.5 Z"/></g>
<g><path style="opacity:0.008" fill="#feff00" d="M 31.5,301.5 C 30.8333,300.167 30.8333,300.167 31.5,301.5 Z"/></g>
<g><path style="opacity:0.008" fill="#feff00" d="M 368.5,300.5 C 369.833,301.167 369.833,301.167 368.5,300.5 Z"/></g>
<g><path style="opacity:0.008" fill="#ffacfe" d="M 31.5,301.5 C 31.8333,301.5 32.1667,301.5 32.5,301.5C 32.1667,304.167 31.8333,304.167 31.5,301.5 Z"/></g>
<g><path style="opacity:0.008" fill="#ffacfe" d="M 367.5,301.5 C 367.833,301.5 368.167,301.5 368.5,301.5C 368.672,302.492 368.338,303.158 367.5,303.5C 367.5,302.833 367.5,302.167 367.5,301.5 Z"/></g>
<g><path style="opacity:0.012" fill="#feaa00" d="M 366.5,303.5 C 366.833,303.5 367.167,303.5 367.5,303.5C 367.315,304.17 366.981,304.17 366.5,303.5 Z"/></g>
<g><path style="opacity:0.004" fill="#feff00" d="M 365.5,304.5 C 365.833,304.5 366.167,304.5 366.5,304.5C 366.672,305.492 366.338,306.158 365.5,306.5C 365.5,305.833 365.5,305.167 365.5,304.5 Z"/></g>
<g><path style="opacity:0.006" fill="#feff00" d="M 35.5,306.5 C 36.1667,306.5 36.5,306.833 36.5,307.5C 36.2533,309.975 35.5866,309.975 34.5,307.5C 34.6236,306.893 34.9569,306.56 35.5,306.5 Z"/></g>
<g><path style="opacity:0.006" fill="#feff00" d="M 364.5,306.5 C 364.833,306.5 365.167,306.5 365.5,306.5C 365.573,308.027 364.906,309.027 363.5,309.5C 363.5,308.833 363.5,308.167 363.5,307.5C 364.167,307.5 364.5,307.167 364.5,306.5 Z"/></g>
<g><path style="opacity:0.012" fill="#feaa00" d="M 362.5,309.5 C 362.833,309.5 363.167,309.5 363.5,309.5C 363.315,310.17 362.981,310.17 362.5,309.5 Z"/></g>
<g><path style="opacity:0.008" fill="#ffacfe" d="M 38.5,310.5 C 38.631,311.239 38.4643,311.906 38,312.5C 37.3083,311.563 37.475,310.897 38.5,310.5 Z"/></g>
<g><path style="opacity:0.008" fill="#ffacfe" d="M 361.5,310.5 C 361.833,310.5 362.167,310.5 362.5,310.5C 362.672,311.492 362.338,312.158 361.5,312.5C 361.5,311.833 361.5,311.167 361.5,310.5 Z"/></g>
<g><path style="opacity:0.016" fill="#fe7f00" d="M 360.5,312.5 C 360.833,312.5 361.167,312.5 361.5,312.5C 361.315,313.17 360.981,313.17 360.5,312.5 Z"/></g>
<g><path style="opacity:0.012" fill="#feaa00" d="M 40.5,313.5 C 39.8333,314.167 39.8333,314.167 40.5,313.5 Z"/></g>
<g><path style="opacity:0.012" fill="#feaa00" d="M 359.5,313.5 C 359.833,313.5 360.167,313.5 360.5,313.5C 360.315,314.17 359.981,314.17 359.5,313.5 Z"/></g>
<g><path style="opacity:0.004" fill="#feff00" d="M 358.5,315.5 C 359.833,316.167 359.833,316.167 358.5,315.5 Z"/></g>
<g><path style="opacity:0.008" fill="#fe7f00" d="M 357.5,316.5 C 357.833,316.5 358.167,316.5 358.5,316.5C 358.315,317.17 357.981,317.17 357.5,316.5 Z"/></g>
<g><path style="opacity:0.004" fill="#feff00" d="M 67.5,317.5 C 68.9063,317.973 69.573,318.973 69.5,320.5C 69.1667,320.5 68.8333,320.5 68.5,320.5C 68.5,319.833 68.1667,319.5 67.5,319.5C 67.5,318.833 67.5,318.167 67.5,317.5 Z"/></g>
<g><path style="opacity:0.004" fill="#feff00" d="M 332.5,317.5 C 332.5,318.167 332.5,318.833 332.5,319.5C 331.833,319.5 331.5,319.833 331.5,320.5C 331.167,320.5 330.833,320.5 330.5,320.5C 330.427,318.973 331.094,317.973 332.5,317.5 Z"/></g>
<g><path style="opacity:0.012" fill="#feaa00" d="M 353.5,321.5 C 354.833,322.167 354.833,322.167 353.5,321.5 Z"/></g>
<g><path style="opacity:0.004" fill="#feff00" d="M 352.5,322.5 C 352.833,322.5 353.167,322.5 353.5,322.5C 353.672,323.492 353.338,324.158 352.5,324.5C 352.5,323.833 352.5,323.167 352.5,322.5 Z"/></g>
<g><path style="opacity:0.004" fill="#ffd6fe" d="M 47.5,322.5 C 47.631,323.239 47.4643,323.906 47,324.5C 46.3083,323.563 46.475,322.897 47.5,322.5 Z"/></g>
<g><path style="opacity:0.008" fill="#fe7f00" d="M 351.5,324.5 C 351.833,324.5 352.167,324.5 352.5,324.5C 352.315,325.17 351.981,325.17 351.5,324.5 Z"/></g>
<g><path style="opacity:0.012" fill="#feaa00" d="M 350.5,325.5 C 350.833,325.5 351.167,325.5 351.5,325.5C 351.315,326.17 350.981,326.17 350.5,325.5 Z"/></g>
<g><path style="opacity:0.012" fill="#feaa00" d="M 349.5,326.5 C 349.833,326.5 350.167,326.5 350.5,326.5C 350.315,327.17 349.981,327.17 349.5,326.5 Z"/></g>
<g><path style="opacity:0.008" fill="#feff00" d="M 348.5,327.5 C 348.833,327.5 349.167,327.5 349.5,327.5C 349.315,328.17 348.981,328.17 348.5,327.5 Z"/></g>
<g><path style="opacity:0.008" fill="#feff00" d="M 344.5,332.5 C 345.833,333.167 345.833,333.167 344.5,332.5 Z"/></g>
<g><path style="opacity:0.008" fill="#feff00" d="M 343.5,333.5 C 343.833,333.5 344.167,333.5 344.5,333.5C 344.315,334.17 343.981,334.17 343.5,333.5 Z"/></g>
<g><path style="opacity:0.012" fill="#feaa00" d="M 342.5,334.5 C 342.833,334.5 343.167,334.5 343.5,334.5C 343.315,335.17 342.981,335.17 342.5,334.5 Z"/></g>
<g><path style="opacity:0.012" fill="#feaa00" d="M 341.5,335.5 C 341.833,335.5 342.167,335.5 342.5,335.5C 342.315,336.17 341.981,336.17 341.5,335.5 Z"/></g>
<g><path style="opacity:0.008" fill="#feff00" d="M 340.5,336.5 C 340.833,336.5 341.167,336.5 341.5,336.5C 341.315,337.17 340.981,337.17 340.5,336.5 Z"/></g>
<g><path style="opacity:0.008" fill="#feff00" d="M 339.5,337.5 C 339.833,337.5 340.167,337.5 340.5,337.5C 340.315,338.17 339.981,338.17 339.5,337.5 Z"/></g>
<g><path style="opacity:0.012" fill="#feaa00" d="M 338.5,338.5 C 338.833,338.5 339.167,338.5 339.5,338.5C 339.315,339.17 338.981,339.17 338.5,338.5 Z"/></g>
<g><path style="opacity:0.008" fill="#feff00" d="M 337.5,339.5 C 337.833,339.5 338.167,339.5 338.5,339.5C 338.315,340.17 337.981,340.17 337.5,339.5 Z"/></g>
<g><path style="opacity:0.008" fill="#feff00" d="M 336.5,340.5 C 336.833,340.5 337.167,340.5 337.5,340.5C 337.315,341.17 336.981,341.17 336.5,340.5 Z"/></g>
<g><path style="opacity:0.012" fill="#feaa00" d="M 335.5,341.5 C 335.833,341.5 336.167,341.5 336.5,341.5C 336.315,342.17 335.981,342.17 335.5,341.5 Z"/></g>
<g><path style="opacity:0.012" fill="#feaa00" d="M 334.5,342.5 C 334.833,342.5 335.167,342.5 335.5,342.5C 335.315,343.17 334.981,343.17 334.5,342.5 Z"/></g>
<g><path style="opacity:0.008" fill="#feff00" d="M 333.5,343.5 C 333.833,343.5 334.167,343.5 334.5,343.5C 334.315,344.17 333.981,344.17 333.5,343.5 Z"/></g>
<g><path style="opacity:0.008" fill="#feff00" d="M 327.5,348.5 C 328.833,349.167 328.833,349.167 327.5,348.5 Z"/></g>
<g><path style="opacity:0.016" fill="#fe7f00" d="M 326.5,349.5 C 326.833,349.5 327.167,349.5 327.5,349.5C 327.315,350.17 326.981,350.17 326.5,349.5 Z"/></g>
<g><path style="opacity:0.012" fill="#feaa00" d="M 325.5,350.5 C 325.833,350.5 326.167,350.5 326.5,350.5C 326.315,351.17 325.981,351.17 325.5,350.5 Z"/></g>
<g><path style="opacity:0.008" fill="#fe7f00" d="M 324.5,351.5 C 324.833,351.5 325.167,351.5 325.5,351.5C 325.315,352.17 324.981,352.17 324.5,351.5 Z"/></g>
<g><path style="opacity:0.004" fill="#feff00" d="M 322.5,353.5 C 322.5,353.167 322.5,352.833 322.5,352.5C 323.167,352.5 323.833,352.5 324.5,352.5C 324.158,353.338 323.492,353.672 322.5,353.5 Z"/></g>
<g><path style="opacity:0.012" fill="#feaa00" d="M 321.5,353.5 C 321.833,353.5 322.167,353.5 322.5,353.5C 322.315,354.17 321.981,354.17 321.5,353.5 Z"/></g>
<g><path style="opacity:0.008" fill="#feff00" d="M 83.5,357.5 C 83.5,357.833 83.5,358.167 83.5,358.5C 82.8299,358.019 82.8299,357.685 83.5,357.5 Z"/></g>
<g><path style="opacity:0.008" fill="#feff00" d="M 316.5,357.5 C 317.833,358.167 317.833,358.167 316.5,357.5 Z"/></g>
<g><path style="opacity:0.004" fill="#feff00" d="M 83.5,358.5 C 84.8333,359.167 84.8333,359.167 83.5,358.5 Z"/></g>
<g><path style="opacity:0.004" fill="#feff00" d="M 316.5,358.5 C 315.833,359.167 315.833,359.167 316.5,358.5 Z"/></g>
<g><path style="opacity:0.012" fill="#feaa00" d="M 313.5,359.5 C 314.833,360.167 314.833,360.167 313.5,359.5 Z"/></g>
<g><path style="opacity:0.012" fill="#feaa00" d="M 312.5,360.5 C 312.833,360.5 313.167,360.5 313.5,360.5C 313.315,361.17 312.981,361.17 312.5,360.5 Z"/></g>
<g><path style="opacity:0.004" fill="#feff00" d="M 310.5,362.5 C 310.5,362.167 310.5,361.833 310.5,361.5C 311.167,361.5 311.833,361.5 312.5,361.5C 312.158,362.338 311.492,362.672 310.5,362.5 Z"/></g>
<g><path style="opacity:0.008" fill="#feff00" d="M 309.5,362.5 C 309.833,362.5 310.167,362.5 310.5,362.5C 310.315,363.17 309.981,363.17 309.5,362.5 Z"/></g>
<g><path style="opacity:0.008" fill="#ffacfe" d="M 307.5,364.5 C 307.5,364.167 307.5,363.833 307.5,363.5C 308.167,363.5 308.833,363.5 309.5,363.5C 309.158,364.338 308.492,364.672 307.5,364.5 Z"/></g>
<g><path style="opacity:0.012" fill="#feaa00" d="M 306.5,364.5 C 306.833,364.5 307.167,364.5 307.5,364.5C 307.315,365.17 306.981,365.17 306.5,364.5 Z"/></g>
<g><path style="opacity:0.004" fill="#feff00" d="M 304.5,366.5 C 304.5,366.167 304.5,365.833 304.5,365.5C 305.167,365.5 305.833,365.5 306.5,365.5C 306.158,366.338 305.492,366.672 304.5,366.5 Z"/></g>
<g><path style="opacity:0.012" fill="#feaa00" d="M 303.5,366.5 C 303.833,366.5 304.167,366.5 304.5,366.5C 304.315,367.17 303.981,367.17 303.5,366.5 Z"/></g>
<g><path style="opacity:0.012" fill="#ffc6ff" d="M 98.5,367.5 C 98.5,367.833 98.5,368.167 98.5,368.5C 95.8333,368.167 95.8333,367.833 98.5,367.5 Z"/></g>
<g><path style="opacity:0.004" fill="#ffe3ff" d="M 301.5,368.5 C 301.5,368.167 301.5,367.833 301.5,367.5C 302.167,367.5 302.833,367.5 303.5,367.5C 303.158,368.338 302.492,368.672 301.5,368.5 Z"/></g>
<g><path style="opacity:0.008" fill="#feff00" d="M 98.5,368.5 C 99.8333,369.167 99.8333,369.167 98.5,368.5 Z"/></g>
<g><path style="opacity:0.008" fill="#feff00" d="M 301.5,368.5 C 300.833,369.167 300.833,369.167 301.5,368.5 Z"/></g>
<g><path style="opacity:0.004" fill="#feff00" d="M 101.5,369.5 C 100.833,370.167 100.833,370.167 101.5,369.5 Z"/></g>
<g><path style="opacity:0.004" fill="#feff00" d="M 298.5,369.5 C 299.833,370.167 299.833,370.167 298.5,369.5 Z"/></g>
<g><path style="opacity:0.016" fill="#febf3e" d="M 103.5,370.5 C 103.5,370.833 103.5,371.167 103.5,371.5C 102.83,371.019 102.83,370.685 103.5,370.5 Z"/></g>
<g><path style="opacity:0.016" fill="#febf3e" d="M 296.5,370.5 C 297.833,371.167 297.833,371.167 296.5,370.5 Z"/></g>
<g><path style="opacity:0.012" fill="#feaa00" d="M 103.5,371.5 C 104.833,372.167 104.833,372.167 103.5,371.5 Z"/></g>
<g><path style="opacity:0.012" fill="#feaa00" d="M 296.5,371.5 C 295.833,372.167 295.833,372.167 296.5,371.5 Z"/></g>
<g><path style="opacity:0.004" fill="#feff00" d="M 105.5,372.5 C 106.833,373.167 106.833,373.167 105.5,372.5 Z"/></g>
<g><path style="opacity:0.004" fill="#feff00" d="M 293.5,372.5 C 294.833,373.167 294.833,373.167 293.5,372.5 Z"/></g>
<g><path style="opacity:0.008" fill="#feff00" d="M 108.5,373.5 C 107.833,374.167 107.833,374.167 108.5,373.5 Z"/></g>
<g><path style="opacity:0.008" fill="#feff00" d="M 291.5,373.5 C 292.833,374.167 292.833,374.167 291.5,373.5 Z"/></g>
<g><path style="opacity:0.02" fill="#fe9f32" d="M 289.5,374.5 C 290.833,375.167 290.833,375.167 289.5,374.5 Z"/></g>
<g><path style="opacity:0.006" fill="#feff00" d="M 112.5,375.5 C 112.103,376.525 111.437,376.692 110.5,376C 111.094,375.536 111.761,375.369 112.5,375.5 Z"/></g>
<g><path style="opacity:0.006" fill="#feff00" d="M 287.5,375.5 C 288.167,375.5 288.833,375.5 289.5,375.5C 288.833,376.833 288.167,376.833 287.5,375.5 Z"/></g>
<g><path style="opacity:0.004" fill="#feff00" d="M 114.5,376.5 C 113.833,377.167 113.833,377.167 114.5,376.5 Z"/></g>
<g><path style="opacity:0.004" fill="#feff00" d="M 285.5,376.5 C 286.833,377.167 286.833,377.167 285.5,376.5 Z"/></g>
<g><path style="opacity:0.016" fill="#febf3e" d="M 283.5,377.5 C 284.833,378.167 284.833,378.167 283.5,377.5 Z"/></g>
<g><path style="opacity:0.016" fill="#ffd434" d="M 118.5,378.5 C 118.103,379.525 117.437,379.692 116.5,379C 117.094,378.536 117.761,378.369 118.5,378.5 Z"/></g>
<g><path style="opacity:0.004" fill="#ffe925" d="M 281.5,378.5 C 282.167,378.5 282.833,378.5 283.5,378.5C 282.833,379.833 282.167,379.833 281.5,378.5 Z"/></g>
<g><path style="opacity:0.008" fill="#fe7f00" d="M 119.5,379.5 C 120.833,380.167 120.833,380.167 119.5,379.5 Z"/></g>
<g><path style="opacity:0.008" fill="#fe7f00" d="M 279.5,379.5 C 280.833,380.167 280.833,380.167 279.5,379.5 Z"/></g>
<g><path style="opacity:0.012" fill="#feaa00" d="M 276.5,380.5 C 277.833,381.167 277.833,381.167 276.5,380.5 Z"/></g>
<g><path style="opacity:0.016" fill="#ffd434" d="M 125.5,381.5 C 125.5,381.833 125.5,382.167 125.5,382.5C 122.833,382.167 122.833,381.833 125.5,381.5 Z"/></g>
<g><path style="opacity:0.004" fill="#ffe925" d="M 274.5,382.5 C 274.5,382.167 274.5,381.833 274.5,381.5C 275.167,381.5 275.833,381.5 276.5,381.5C 276.158,382.338 275.492,382.672 274.5,382.5 Z"/></g>
<g><path style="opacity:0.012" fill="#ffc6ff" d="M 125.5,382.5 C 126.239,382.369 126.906,382.536 127.5,383C 126.563,383.692 125.897,383.525 125.5,382.5 Z"/></g>
<g><path style="opacity:0.004" fill="#ffe3ff" d="M 274.5,382.5 C 274.103,383.525 273.437,383.692 272.5,383C 273.094,382.536 273.761,382.369 274.5,382.5 Z"/></g>
<g><path style="opacity:0.004" fill="#feff00" d="M 128.5,384.5 C 128.897,383.475 129.563,383.308 130.5,384C 129.906,384.464 129.239,384.631 128.5,384.5 Z"/></g>
<g><path style="opacity:0.004" fill="#feff00" d="M 269.5,384.5 C 269.897,383.475 270.563,383.308 271.5,384C 270.906,384.464 270.239,384.631 269.5,384.5 Z"/></g>
<g><path style="opacity:0.004" fill="#ffe925" d="M 266.5,385.5 C 266.5,385.167 266.5,384.833 266.5,384.5C 269.167,384.833 269.167,385.167 266.5,385.5 Z"/></g>
<g><path style="opacity:0.016" fill="#ffca00" d="M 136.5,385.5 C 136.5,385.833 136.5,386.167 136.5,386.5C 132.5,386.167 132.5,385.833 136.5,385.5 Z"/></g>
<g><path style="opacity:0.016" fill="#ffca00" d="M 263.5,386.5 C 263.5,386.167 263.5,385.833 263.5,385.5C 264.5,385.5 265.5,385.5 266.5,385.5C 265.791,386.404 264.791,386.737 263.5,386.5 Z"/></g>
<g><path style="opacity:0.006" fill="#feff00" d="M 136.5,386.5 C 137.239,386.369 137.906,386.536 138.5,387C 137.563,387.692 136.897,387.525 136.5,386.5 Z"/></g>
<g><path style="opacity:0.006" fill="#feff00" d="M 263.5,386.5 C 263.103,387.525 262.437,387.692 261.5,387C 262.094,386.536 262.761,386.369 263.5,386.5 Z"/></g>
<g><path style="opacity:0.008" fill="#ffacfe" d="M 142.5,387.5 C 142.103,388.525 141.437,388.692 140.5,388C 141.094,387.536 141.761,387.369 142.5,387.5 Z"/></g>
<g><path style="opacity:0.004" fill="#ffd6fe" d="M 257.5,387.5 C 258.239,387.369 258.906,387.536 259.5,388C 258.563,388.692 257.897,388.525 257.5,387.5 Z"/></g>
<g><path style="opacity:0.02" fill="#ffcf26" d="M 146.5,388.5 C 146.5,388.833 146.5,389.167 146.5,389.5C 142.5,389.167 142.5,388.833 146.5,388.5 Z"/></g>
<g><path style="opacity:0.02" fill="#ffcf26" d="M 253.5,389.5 C 253.5,389.167 253.5,388.833 253.5,388.5C 257.5,388.833 257.5,389.167 253.5,389.5 Z"/></g>
<g><path style="opacity:0.016" fill="#ffacfe" d="M 146.5,389.5 C 147.239,389.369 147.906,389.536 148.5,390C 147.563,390.692 146.897,390.525 146.5,389.5 Z"/></g>
<g><path style="opacity:0.008" fill="#ffd6fe" d="M 253.5,389.5 C 253.103,390.525 252.437,390.692 251.5,390C 252.094,389.536 252.761,389.369 253.5,389.5 Z"/></g>
<g><path style="opacity:0.004" fill="#feff00" d="M 149.5,391.5 C 149.897,390.475 150.563,390.308 151.5,391C 150.906,391.464 150.239,391.631 149.5,391.5 Z"/></g>
<g><path style="opacity:0.004" fill="#feff00" d="M 248.5,391.5 C 248.897,390.475 249.563,390.308 250.5,391C 249.906,391.464 249.239,391.631 248.5,391.5 Z"/></g>
<g><path style="opacity:0.006" fill="#fff000" d="M 241.5,392.5 C 241.5,392.167 241.5,391.833 241.5,391.5C 246.833,391.833 246.833,392.167 241.5,392.5 Z"/></g>
<g><path style="opacity:0.016" fill="#ffb92b" d="M 162.5,392.5 C 162.5,392.833 162.5,393.167 162.5,393.5C 157.167,393.167 157.167,392.833 162.5,392.5 Z"/></g>
<g><path style="opacity:0.02" fill="#ffb329" d="M 237.5,393.5 C 237.5,393.167 237.5,392.833 237.5,392.5C 238.833,392.5 240.167,392.5 241.5,392.5C 240.432,393.434 239.099,393.768 237.5,393.5 Z"/></g>
<g><path style="opacity:0.008" fill="#ffbcfe" d="M 162.5,393.5 C 163.873,393.343 165.207,393.51 166.5,394C 164.934,394.765 163.601,394.598 162.5,393.5 Z"/></g>
<g><path style="opacity:0.012" fill="#ffc4ff" d="M 237.5,393.5 C 236.399,394.598 235.066,394.765 233.5,394C 234.793,393.51 236.127,393.343 237.5,393.5 Z"/></g>
<g><path style="opacity:0.004" fill="#ffeaff" d="M 170.5,395.5 C 171.946,394.387 173.613,394.22 175.5,395C 173.866,395.494 172.199,395.66 170.5,395.5 Z"/></g>
<g><path style="opacity:0.004" fill="#ffeaff" d="M 224.5,395.5 C 225.946,394.387 227.613,394.22 229.5,395C 227.866,395.494 226.199,395.66 224.5,395.5 Z"/></g>
<g><path style="opacity:0.012" fill="#ffb315" d="M 215.5,396.5 C 215.5,396.167 215.5,395.833 215.5,395.5C 226.167,395.833 226.167,396.167 215.5,396.5 Z"/></g>
<g><path style="opacity:0.016" fill="#ffb912" d="M 215.5,396.5 C 205.342,397.659 195.008,397.825 184.5,397C 194.828,396.5 205.161,396.334 215.5,396.5 Z"/></g>
</svg>
