<?xml version="1.0" encoding="UTF-8"?>
<svg version="1.1" xmlns="http://www.w3.org/2000/svg" width="680" height="272">
<path d="M0 0 C2.52361521 1.95897071 4.93225738 3.99122057 7.31640625 6.1171875 C8.02667969 6.74496094 8.73695313 7.37273437 9.46875 8.01953125 C15.39876684 13.58532441 21.8002193 20.90290884 23.31640625 29.1171875 C18.12758093 32.48440393 12.88905253 35.4303759 7.31640625 38.1171875 C6.82011719 37.25996094 6.32382813 36.40273437 5.8125 35.51953125 C-2.06735304 22.14256127 -11.37986766 13.07130043 -26.75 8.60546875 C-41.77556389 4.81113443 -56.10072988 7.81946215 -69.35546875 15.62890625 C-79.49119832 22.10829042 -87.4350002 33.18295171 -90.11816406 45.03710938 C-93.05197324 60.73855901 -91.29594347 74.36706892 -82.68359375 88.1171875 C-74.91319847 98.81428533 -63.8146343 106.71171671 -50.68359375 109.1171875 C-34.18272702 110.79327056 -20.45007695 108.68240122 -7.0859375 98.22265625 C-2.35003105 94.07200003 1.45566136 89.79032539 4.44140625 84.2421875 C7.7970112 78.5677592 13.52785724 75.12050442 18.75097656 71.30126953 C21.60162543 69.14505509 24.21231042 66.72784615 26.828125 64.296875 C28.31640625 63.1171875 28.31640625 63.1171875 30.31640625 63.1171875 C29.42678351 82.82233114 20.13742551 98.66982226 6.31640625 112.2421875 C-7.88856055 124.72058375 -26.35108944 130.21721089 -45.046875 129.4921875 C-63.63868465 128.26828726 -80.12659668 119.55739843 -92.68359375 106.1171875 C-95.20890625 103.22845364 -97.49806549 100.26882529 -99.68359375 97.1171875 C-100.35455078 96.22193359 -100.35455078 96.22193359 -101.0390625 95.30859375 C-111.02249937 81.02459945 -112.56339882 61.34269432 -110.05859375 44.4921875 C-107.44534856 32.55110879 -102.38203748 22.56102738 -94.68359375 13.1171875 C-94.04164062 12.27414063 -93.3996875 11.43109375 -92.73828125 10.5625 C-70.38311343 -16.04269973 -27.75073814 -19.46995019 0 0 Z " fill="#00ACEC" transform="translate(129.68359375,77.8828125)"/>
<path d="M0 0 C11.06343671 -0.75006351 21.1960542 3.12561794 31 8 C31.65613281 8.31066406 32.31226563 8.62132813 32.98828125 8.94140625 C42.62102237 13.85755096 52.61124778 21.07940958 60 29 C63.24674926 27.9950538 66.12631697 26.93178884 69.125 25.3125 C72 24 72 24 73.9453125 24.1328125 C76.79272244 25.33457107 77.93694178 27.0869782 79.75 29.5625 C80.36359375 30.38878906 80.9771875 31.21507813 81.609375 32.06640625 C82.06828125 32.70449219 82.5271875 33.34257813 83 34 C82.62746094 34.80824219 82.25492188 35.61648437 81.87109375 36.44921875 C81.16146484 38.05216797 81.16146484 38.05216797 80.4375 39.6875 C79.96183594 40.74324219 79.48617187 41.79898438 78.99609375 42.88671875 C77.91864513 46.25427385 77.8528189 47.70048866 79 51 C80.17903636 53.07892151 80.17903636 53.07892151 81.6875 55.0625 C94.05088839 72.94049328 97.42028413 90.77565118 97 112 C96.34 112 95.68 112 95 112 C94.36384766 110.36804688 94.36384766 110.36804688 93.71484375 108.703125 C88.45998437 95.44259105 82.34062894 83.89165589 73 73 C72.21882812 72.0615625 71.43765625 71.123125 70.6328125 70.15625 C69.84648437 69.2384375 69.06015625 68.320625 68.25 67.375 C67.17492187 66.11816406 67.17492187 66.11816406 66.078125 64.8359375 C63.96254114 62.55860839 63.96254114 62.55860839 60 63 C60 63.66 60 64.32 60 65 C58.48706055 66.40454102 58.48706055 66.40454102 56.38671875 68.00390625 C55.63326172 68.57947266 54.87980469 69.15503906 54.10351562 69.74804688 C53.30623047 70.34681641 52.50894531 70.94558594 51.6875 71.5625 C50.90181641 72.16513672 50.11613281 72.76777344 49.30664062 73.38867188 C43.40234897 77.86588368 43.40234897 77.86588368 40 79 C40 79.66 40 80.32 40 81 C37.9451483 82.49250324 35.90454308 83.8523256 33.75 85.1875 C33.11102783 85.58751221 32.47205566 85.98752441 31.8137207 86.3996582 C30.50065134 87.21802343 29.18528464 88.03271382 27.86767578 88.84375 C26.23209704 89.85631221 24.61264756 90.8948333 22.99609375 91.9375 C-0.00410804 106.26864103 -31.36908706 111.13300268 -58 107 C-59.1650499 104.6699002 -59.1209358 103.32752923 -59.11352539 100.73388672 C-59.11344986 99.85312469 -59.11337433 98.97236267 -59.11329651 98.06491089 C-59.10813522 97.11278717 -59.10297394 96.16066345 -59.09765625 95.1796875 C-59.0962413 94.20589142 -59.09482635 93.23209534 -59.09336853 92.22879028 C-59.08775973 89.11082927 -59.07520573 85.9929394 -59.0625 82.875 C-59.05748613 80.76432395 -59.05292303 78.65364678 -59.04882812 76.54296875 C-59.03863725 71.36192953 -59.01906353 66.18104465 -59 61 C-51.41 61 -43.82 61 -36 61 C-36 74.66666667 -36 88.33333333 -36 102 C-15.18166624 96.56410174 1.45254605 89.16790272 18 75 C19.08237201 74.1446155 20.1655172 73.29020679 21.25 72.4375 C24.86464634 69.23360892 27.8925174 65.69013559 31 62 C31.91623707 60.92281153 32.83293637 59.84601612 33.75 58.76953125 C36.51112483 55.5221215 39.26580147 52.27015169 42 49 C42.76957031 48.09507813 43.53914063 47.19015625 44.33203125 46.2578125 C46.24139188 44.1410955 46.24139188 44.1410955 46 41.5625 C39.45264743 24.78490905 21.83149447 13.44475704 6.84521484 5.03613281 C4.53124012 3.73677998 2.23519463 2.43157848 0 1 C0 0.67 0 0.34 0 0 Z M-49 103 C-49 103.33 -49 103.66 -49 104 C-47.35 104 -45.7 104 -44 104 C-44 103.67 -44 103.34 -44 103 C-45.65 103 -47.3 103 -49 103 Z M-58 104 C-58 104.33 -58 104.66 -58 105 C-56.02 105 -54.04 105 -52 105 C-52 104.67 -52 104.34 -52 104 C-53.98 104 -55.96 104 -58 104 Z " fill="#0DAAE9" transform="translate(110,65)"/>
<path d="M0 0 C13.61748787 3.89071082 27.06834879 10.97764404 38 20 C38 20.66 38 21.32 38 22 C38.58394531 22.26232422 39.16789062 22.52464844 39.76953125 22.79492188 C58.37835855 32.848903 73.14640992 58.39970458 79.30859375 78.01953125 C81.08089383 84.10555674 82.20351567 89.61774851 82 96 C79.68208428 93.05617826 77.86373635 90.0316418 76.0625 86.75 C69.16499156 74.82153931 60.48777119 63.96695155 51 54 C47.06284334 56.50391834 43.74495936 59.09552253 40.4375 62.375 C12.83096965 87.83477424 -22.80799467 102.36108743 -60 102 C-60 101.67 -60 101.34 -60 101 C-58.84951172 100.88785156 -58.84951172 100.88785156 -57.67578125 100.7734375 C-25.56423101 96.96928172 0.38126495 82.12098924 22.93408203 59.27172852 C24.38903322 57.79828845 25.85206243 56.33324096 27.31640625 54.86914062 C35.06347648 48.29361766 35.06347648 48.29361766 39.015625 39.89453125 C33.24053041 24.18980974 18.80185556 13.95598636 5.48657227 4.84619141 C4.77557373 4.35940918 4.0645752 3.87262695 3.33203125 3.37109375 C2.36873901 2.7203186 2.36873901 2.7203186 1.38598633 2.05639648 C0.92861084 1.70778564 0.47123535 1.3591748 0 1 C0 0.67 0 0.34 0 0 Z " fill="#F14640" transform="translate(122,69)"/>
<path d="M0 0 C3.96 0 7.92 0 12 0 C13.32 6.6 14.64 13.2 16 20 C17.50926897 15.47219308 18.66114467 11.26903024 19.625 6.625 C19.88539063 5.37976563 20.14578125 4.13453125 20.4140625 2.8515625 C20.70410156 1.44003906 20.70410156 1.44003906 21 0 C24.96 0 28.92 0 33 0 C33 15.51 33 31.02 33 47 C30.36 47 27.72 47 25 47 C24.505 35.615 24.505 35.615 24 24 C22.35 31.59 20.7 39.18 19 47 C17.35 47 15.7 47 14 47 C13.35025795 44.31339217 12.70511582 41.62581326 12.0625 38.9375 C11.88009766 38.18533203 11.69769531 37.43316406 11.50976562 36.65820312 C11.33251953 35.91376953 11.15527344 35.16933594 10.97265625 34.40234375 C10.81031494 33.72679443 10.64797363 33.05124512 10.48071289 32.35522461 C9.84932464 29.26177493 9.44649932 26.12549522 9 23 C8.67 30.92 8.34 38.84 8 47 C5.36 47 2.72 47 0 47 C0 31.49 0 15.98 0 0 Z " fill="#F34541" transform="translate(215,121)"/>
<path d="M0 0 C7.92 0 15.84 0 24 0 C24 14.52 24 29.04 24 44 C8 52 8 52 0 52 C0 34.84 0 17.68 0 0 Z " fill="#01ABEB" transform="translate(76,113)"/>
<path d="M0 0 C7.26 0 14.52 0 22 0 C22.30010579 5.82513033 22.55790505 11.62321655 22.71411133 17.44995117 C22.77920362 19.42646329 22.86771935 21.40235602 22.98071289 23.37670898 C23.87125811 39.34607876 23.87125811 39.34607876 20.74954224 43.77346802 C17.30872249 47.07792802 13.33184089 49.03712435 9 51 C7.59570006 51.84017443 6.19758792 52.69101687 4.8125 53.5625 C2 55 2 55 0 55 C0 36.85 0 18.7 0 0 Z " fill="#F3433F" transform="translate(102,101)"/>
<path d="M0 0 C7.59 0 15.18 0 23 0 C23 13.2 23 26.4 23 40 C17 42 17 42 0 44 C0 29.48 0 14.96 0 0 Z " fill="#F3433E" transform="translate(51,126)"/>
<path d="M0 0 C2.64 0 5.28 0 8 0 C10.31 5.94 12.62 11.88 15 18 C15.495 9.09 15.495 9.09 16 0 C18.97 0 21.94 0 25 0 C25 15.51 25 31.02 25 47 C22.36 47 19.72 47 17 47 C15.85297813 44.06296271 14.7075888 41.12529143 13.5625 38.1875 C13.23701172 37.35412109 12.91152344 36.52074219 12.57617188 35.66210938 C12.26357422 34.85966797 11.95097656 34.05722656 11.62890625 33.23046875 C11.34088135 32.49207764 11.05285645 31.75368652 10.75610352 30.99291992 C10.13028355 29.34339833 9.5579043 27.67371291 9 26 C8.67 32.93 8.34 39.86 8 47 C5.36 47 2.72 47 0 47 C0 31.49 0 15.98 0 0 Z " fill="#F34541" transform="translate(271,121)"/>
<path d="M0 0 C2.97 0 5.94 0 9 0 C11.31 6.6 13.62 13.2 16 20 C16.33 13.4 16.66 6.8 17 0 C19.64 0 22.28 0 25 0 C25 15.51 25 31.02 25 47 C22.36 47 19.72 47 17 47 C15.85017194 44.08489248 14.70584512 41.16765566 13.5625 38.25 C13.23701172 37.425 12.91152344 36.6 12.57617188 35.75 C12.26357422 34.95078125 11.95097656 34.1515625 11.62890625 33.328125 C11.34088135 32.5949707 11.05285645 31.86181641 10.75610352 31.10644531 C10 29 10 29 9 25 C8.67 32.26 8.34 39.52 8 47 C5.36 47 2.72 47 0 47 C0 31.49 0 15.98 0 0 Z " fill="#F34541" transform="translate(519,121)"/>
<path d="M0 0 C2.64 0 5.28 0 8 0 C8.77694891 1.6429552 9.5461752 3.2895626 10.3125 4.9375 C10.74175781 5.85402344 11.17101562 6.77054687 11.61328125 7.71484375 C13.30428378 11.72085256 14.62495105 15.87485315 16 20 C16.33 13.4 16.66 6.8 17 0 C19.64 0 22.28 0 25 0 C25 15.51 25 31.02 25 47 C22.36 47 19.72 47 17 47 C13 36 13 36 9 25 C8.67 32.26 8.34 39.52 8 47 C5.36 47 2.72 47 0 47 C0 31.49 0 15.98 0 0 Z " fill="#F34541" transform="translate(319,121)"/>
<path d="M0 0 C2.70942393 -0.10861833 5.414439 -0.18758577 8.125 -0.25 C8.88554687 -0.28351563 9.64609375 -0.31703125 10.4296875 -0.3515625 C15.78978529 -0.44397798 18.73437038 0.45889345 23 4 C25.37450577 7.25293565 25.32889898 10.41953242 25.375 14.375 C25.40335937 15.47585937 25.43171875 16.57671875 25.4609375 17.7109375 C25 21 25 21 22.8046875 23.8359375 C20.75707685 26.70598417 20.75707685 26.70598417 21.23388672 29.12451172 C21.95401894 31.56192164 22.80613658 33.89034145 23.75 36.25 C24.35072343 37.85871698 24.94976591 39.46806298 25.546875 41.078125 C25.82370117 41.78356445 26.10052734 42.48900391 26.38574219 43.21582031 C27 45 27 45 27 47 C23.7 47 20.4 47 17 47 C16.67386719 45.71222656 16.34773438 44.42445313 16.01171875 43.09765625 C15.57097936 41.41909559 15.12953668 39.74071949 14.6875 38.0625 C14.47416016 37.21236328 14.26082031 36.36222656 14.04101562 35.48632812 C13.82509766 34.67744141 13.60917969 33.86855469 13.38671875 33.03515625 C13.09607544 31.91185913 13.09607544 31.91185913 12.79956055 30.76586914 C12.53570557 30.18313232 12.27185059 29.60039551 12 29 C11.01 28.67 10.02 28.34 9 28 C9 34.27 9 40.54 9 47 C6.36 47 3.72 47 1 47 C0 46 0 46 -0.12025452 44.13340759 C-0.11803391 43.31844315 -0.11581329 42.5034787 -0.11352539 41.66381836 C-0.11344986 40.7429393 -0.11337433 39.82206024 -0.11329651 38.87327576 C-0.10813522 37.87224319 -0.10297394 36.87121063 -0.09765625 35.83984375 C-0.0962413 34.82024063 -0.09482635 33.80063751 -0.09336853 32.75013733 C-0.08775097 29.47922893 -0.0751955 26.20838787 -0.0625 22.9375 C-0.05748726 20.72591244 -0.05292396 18.51432382 -0.04882812 16.30273438 C-0.03777584 10.86846643 -0.02102063 5.43423803 0 0 Z M9 8 C9 11.96 9 15.92 9 20 C10.98 20 12.96 20 15 20 C16.25173779 18.96966611 16.25173779 18.96966611 16.1328125 16.75 C16.13023437 15.8425 16.12765625 14.935 16.125 14 C16.12757813 13.0925 16.13015625 12.185 16.1328125 11.25 C16.25173779 9.03033389 16.25173779 9.03033389 15 8 C13.02 8 11.04 8 9 8 Z " fill="#F34541" transform="translate(460,121)"/>
<path d="M0 0 C16 0 16 0 22 3 C25.60919445 7.52484632 25.47793363 11.56346835 25.3828125 17.1484375 C25 20 25 20 22.8125 23.0625 C20.70640733 25.78050859 20.70640733 25.78050859 21.33203125 28.44921875 C21.86836666 30.34356599 22.44524811 32.22682374 23.05859375 34.09765625 C24.42928522 38.32348098 25.19562554 42.63745144 26 47 C23.36 47 20.72 47 18 47 C15.07617577 40.87389209 13.52785824 34.59904729 12 28 C11.01 28 10.02 28 9 28 C9 34.27 9 40.54 9 47 C6.03 47 3.06 47 0 47 C0 31.49 0 15.98 0 0 Z M9 8 C9 11.96 9 15.92 9 20 C10.65 20 12.3 20 14 20 C16.16512323 18.24524938 16.16512323 18.24524938 16.23046875 16.125 C16.21628906 15.42375 16.20210938 14.7225 16.1875 14 C16.18105469 13.29875 16.17460937 12.5975 16.16796875 11.875 C16.10706133 9.90943627 16.10706133 9.90943627 15 8 C13.02 8 11.04 8 9 8 Z " fill="#00ACEC" transform="translate(381,121)"/>
<path d="M0 0 C3.4092638 2.12983222 5.69649215 4.08947645 7 8 C7.12781786 10.67394964 7.04391871 13.32095857 7 16 C4.36 16 1.72 16 -1 16 C-1.99 13.36 -2.98 10.72 -4 8 C-4.99 8.33 -5.98 8.66 -7 9 C-7 18.57 -7 28.14 -7 38 C-5.68 38 -4.36 38 -3 38 C-2.34 35.36 -1.68 32.72 -1 30 C-2.65 30 -4.3 30 -6 30 C-6 27.69 -6 25.38 -6 23 C-1.38 23 3.24 23 8 23 C8 30.92 8 38.84 8 47 C6.02 47 4.04 47 2 47 C1.67 46.34 1.34 45.68 1 45 C0.01 45.66 -0.98 46.32 -2 47 C-8.90258449 47.66799205 -8.90258449 47.66799205 -12.875 45.25 C-18.24124744 39.56809095 -17.33841503 33.16145894 -17.31567383 25.78320312 C-17.3125203 23.63880271 -17.33596574 21.4957919 -17.36132812 19.3515625 C-17.36360212 17.97656423 -17.36430415 16.60156227 -17.36328125 15.2265625 C-17.36626221 13.98471191 -17.36924316 12.74286133 -17.37231445 11.46337891 C-16.96079656 7.63531806 -16.0445833 5.24792588 -14 2 C-9.04657215 -0.95300506 -5.54848655 -1.61410518 0 0 Z " fill="#F34541" transform="translate(367,121)"/>
<path d="M0 0 C3.46671242 2.4996038 5.5905028 5.28878983 6.58984375 9.46484375 C6.83990051 11.63314416 6.93287264 13.81836095 7 16 C4.03 16 1.06 16 -2 16 C-2.33 13.36 -2.66 10.72 -3 8 C-4.32 8 -5.64 8 -7 8 C-8.43509221 10.87018441 -8.11158506 13.33543723 -8.09765625 16.5390625 C-8.09443359 17.84101563 -8.09121094 19.14296875 -8.08789062 20.484375 C-8.07953466 21.86458399 -8.07106971 23.24479232 -8.0625 24.625 C-8.05748501 26.01301926 -8.0529221 27.40104022 -8.04882812 28.7890625 C-8.03700976 32.19275132 -8.02053434 35.59635439 -8 39 C-6.35 39 -4.7 39 -3 39 C-2.67 36.03 -2.34 33.06 -2 30 C-3.65 30 -5.3 30 -7 30 C-7 27.69 -7 25.38 -7 23 C-2.38 23 2.24 23 7 23 C7 30.92 7 38.84 7 47 C5.35 47 3.7 47 2 47 C1.34 46.34 0.68 45.68 0 45 C-0.99 45.66 -1.98 46.32 -3 47 C-7.55515656 47.4408216 -9.88263631 47.63155339 -13.875 45.375 C-19.32690068 39.28169924 -18.33301758 31.24017952 -18.3125 23.5625 C-18.32861328 22.36044922 -18.34472656 21.15839844 -18.36132812 19.91992188 C-18.36485033 13.53416093 -18.23526063 8.58102138 -15 3 C-10.59170943 -1.13277241 -5.718997 -1.89913863 0 0 Z " fill="#00ACEC" transform="translate(447,121)"/>
<path d="M0 0 C3.3 0 6.6 0 10 0 C12.25080781 9.2810363 14.08312027 18.58699264 15.6875 28 C15.91244141 29.28261719 16.13738281 30.56523437 16.36914062 31.88671875 C16.58119141 33.12035156 16.79324219 34.35398438 17.01171875 35.625 C17.20209717 36.73101562 17.39247559 37.83703125 17.58862305 38.9765625 C17.95941158 41.7016932 18.08066688 44.2554132 18 47 C11.84765625 47.09765625 11.84765625 47.09765625 10 47 C8.41727399 45.41727399 8.65264253 43.61965997 8.4375 41.4375 C8.35371094 40.61121094 8.26992188 39.78492188 8.18359375 38.93359375 C8.12300781 38.29550781 8.06242188 37.65742188 8 37 C5.69 37 3.38 37 1 37 C0.67 40.3 0.34 43.6 0 47 C-2.97 47 -5.94 47 -9 47 C-8.27482241 39.08571613 -6.89569147 31.3082583 -5.47094727 23.49658203 C-5.06109409 21.24226705 -4.6602288 18.98646836 -4.25976562 16.73046875 C-3.99793934 15.2837557 -3.73558799 13.83713755 -3.47265625 12.390625 C-3.3548732 11.7228302 -3.23709015 11.0550354 -3.11573792 10.36700439 C-2.43867638 6.70605367 -1.5157079 3.40229351 0 0 Z M4 15 C3.67 19.29 3.34 23.58 3 28 C4.32 28 5.64 28 7 28 C6.34 23.71 5.68 19.42 5 15 C4.67 15 4.34 15 4 15 Z " fill="#F34541" transform="translate(579,121)"/>
<path d="M0 0 C7.26 0 14.52 0 22 0 C22 2.64 22 5.28 22 8 C17.71 8 13.42 8 9 8 C9 11.3 9 14.6 9 18 C12.3 18 15.6 18 19 18 C19 20.97 19 23.94 19 27 C15.7 27 12.4 27 9 27 C9 30.63 9 34.26 9 38 C13.62 38 18.24 38 23 38 C23 40.97 23 43.94 23 47 C15.41 47 7.82 47 0 47 C0 31.49 0 15.98 0 0 Z " fill="#F34541" transform="translate(491,121)"/>
<path d="M0 0 C2.49225344 3.3718723 2.88145269 5.73469567 3.125 9.875 C0.485 9.875 -2.155 9.875 -4.875 9.875 C-5.205 8.555 -5.535 7.235 -5.875 5.875 C-7.525 6.205 -9.175 6.535 -10.875 6.875 C-11.36459849 9.12226514 -11.36459849 9.12226514 -10.875 11.875 C-8.98850174 14.048129 -7.18411804 15.90133081 -5.0625 17.8125 C3.76320518 25.86894466 3.76320518 25.86894466 4.33984375 32.25390625 C3.71284141 37.19044583 2.89729355 40.32460607 -0.875 43.875 C-5.21694463 45.32231488 -9.3421846 45.53392365 -13.875 44.875 C-17.03335169 42.44043724 -18.67481495 40.17527757 -20.875 36.875 C-21 33.6875 -21 33.6875 -20.875 30.875 C-18.235 30.545 -15.595 30.215 -12.875 29.875 C-12.215 31.855 -11.555 33.835 -10.875 35.875 C-9.225 35.875 -7.575 35.875 -5.875 35.875 C-5.75198056 32.98404314 -5.79277093 31.51776473 -6.875 28.875 C-9.24767807 26.38792495 -11.75650082 24.24475006 -14.4296875 22.0859375 C-18.67981229 18.24317292 -20.42356195 14.46836049 -20.94140625 8.8671875 C-20.83311127 5.61833798 -19.66665595 3.53159331 -17.875 0.875 C-12.51891265 -4.13553333 -5.97589782 -4.41696795 0 0 Z " fill="#F34541" transform="translate(643.875,123.125)"/>
<path d="M0 0 C7.92 0 15.84 0 24 0 C24 2.64 24 5.28 24 8 C21.36 8 18.72 8 16 8 C16 20.87 16 33.74 16 47 C13.03 47 10.06 47 7 47 C7 34.13 7 21.26 7 8 C4.69 8 2.38 8 0 8 C0 5.36 0 2.72 0 0 Z " fill="#F34541" transform="translate(547,121)"/>
<path d="M0 0 C2.97 0 5.94 0 9 0 C9 12.54 9 25.08 9 38 C12.96 38 16.92 38 21 38 C21 40.97 21 43.94 21 47 C14.07 47 7.14 47 0 47 C0 31.49 0 15.98 0 0 Z " fill="#F34541" transform="translate(600,121)"/>
<path d="M0 0 C2.97 0 5.94 0 9 0 C9 15.51 9 31.02 9 47 C6.03 47 3.06 47 0 47 C0 31.49 0 15.98 0 0 Z " fill="#00ACEC" transform="translate(413,121)"/>
<path d="M0 0 C2.97 0 5.94 0 9 0 C9 15.51 9 31.02 9 47 C6.03 47 3.06 47 0 47 C0 31.49 0 15.98 0 0 Z " fill="#F34541" transform="translate(303,121)"/>
<path d="M0 0 C2.97 0 5.94 0 9 0 C9.02464347 6.53279339 9.04283291 13.06555998 9.05493164 19.59838867 C9.05997317 21.82267732 9.06680623 24.04696263 9.07543945 26.27124023 C9.08751298 29.46078309 9.09322996 32.65028229 9.09765625 35.83984375 C9.10281754 36.84087631 9.10797882 37.84190887 9.11329651 38.87327576 C9.11337204 39.79415482 9.11344757 40.71503387 9.11352539 41.66381836 C9.115746 42.47878281 9.11796661 43.29374725 9.12025452 44.13340759 C9 46 9 46 8 47 C5.36 47 2.72 47 0 47 C0 31.49 0 15.98 0 0 Z " fill="#F34541" transform="translate(255,121)"/>
<path d="M0 0 C1.98 0 3.96 0 6 0 C6.66 2.31 7.32 4.62 8 7 C9.20628008 4.66785852 10.1654738 2.50357861 11 0 C12.98 0 14.96 0 17 0 C17 5.94 17 11.88 17 18 C15.68 18 14.36 18 13 18 C12.67 17.01 12.34 16.02 12 15 C11.67 15.99 11.34 16.98 11 18 C9.35 17.67 7.7 17.34 6 17 C5.67 15.68 5.34 14.36 5 13 C4.67 14.65 4.34 16.3 4 18 C2.68 18 1.36 18 0 18 C0 12.06 0 6.12 0 0 Z " fill="#FDEDED" transform="translate(54,138)"/>
<path d="M0 0 C10.57142857 0 10.57142857 0 14 3 C15 4.9375 15 4.9375 15 7 C13.5625 9.25 13.5625 9.25 12 11 C13.32 13.31 14.64 15.62 16 18 C13.75 18.375 13.75 18.375 11 18 C8.875 15.0625 8.875 15.0625 7 12 C6.01 11.67 5.02 11.34 4 11 C4 13.31 4 15.62 4 18 C2.68 18 1.36 18 0 18 C0 12.06 0 6.12 0 0 Z " fill="#FEF6F6" transform="translate(106,118)"/>
<path d="M0 0 C1.5675 -0.061875 3.135 -0.12375 4.75 -0.1875 C6.07257813 -0.23970703 6.07257813 -0.23970703 7.421875 -0.29296875 C10.50312129 0.05717287 11.8194961 0.8194961 14 3 C14.25 6.1875 14.25 6.1875 14 9 C13.01 9.33 12.02 9.66 11 10 C12.65 12.64 14.3 15.28 16 18 C13.8125 18.375 13.8125 18.375 11 18 C8.3125 15.0625 8.3125 15.0625 6 12 C5.34 11.67 4.68 11.34 4 11 C4 13.31 4 15.62 4 18 C2.68 18 1.36 18 0 18 C0 12.06 0 6.12 0 0 Z " fill="#EEF6FC" transform="translate(81,131)"/>
<path d="M0 0 C3.63 0 7.26 0 11 0 C11 1.65 11 3.3 11 5 C10.01 5 9.02 5 8 5 C8.99 5.66 9.98 6.32 11 7 C11 9.66666667 11 12.33333333 11 15 C7.37 15 3.74 15 0 15 C0 13.35 0 11.7 0 10 C1.32 9.34 2.64 8.68 4 8 C2.68 7.34 1.36 6.68 0 6 C0 4.02 0 2.04 0 0 Z " fill="#00ACEC" transform="translate(650,124)"/>
<path d="M0 0 C1.8125 1.125 1.8125 1.125 3 3 C3.42888292 6.35958291 3.33264845 8.3347031 1.8125 11.375 C0 13 0 13 -2.5 13.4375 C-5 13 -5 13 -6.8125 11.9375 C-8.67036623 8.90624457 -8.37133265 6.46577141 -8 3 C-5.95177941 -0.34183359 -3.7548828 -0.56323242 0 0 Z M-4 4 C-4.33 5.65 -4.66 7.3 -5 9 C-3.35 8.67 -1.7 8.34 0 8 C-0.33 6.68 -0.66 5.36 -1 4 C-1.99 4 -2.98 4 -4 4 Z " fill="#00ACEC" transform="translate(658,139)"/>
<path d="M0 0 C0.495 1.485 0.495 1.485 1 3 C-14.77559332 11.66605926 -31.696631 20.00163442 -50 21 C-49.67 20.34 -49.34 19.68 -49 19 C-47.19677734 18.40917969 -47.19677734 18.40917969 -44.8359375 17.921875 C-43.96839844 17.73391357 -43.10085937 17.54595215 -42.20703125 17.35229492 C-41.27246094 17.1535376 -40.33789062 16.95478027 -39.375 16.75 C-24.82568092 13.44859412 -12.42928734 8.25824487 0 0 Z " fill="#28A7E4" transform="translate(117,149)"/>
<path d="M0 0 C1.125 3.75 1.125 3.75 0 6 C-10.04582996 8.75367928 -20.69090811 8.20826448 -31 8 C-31 7.67 -31 7.34 -31 7 C-30.18660156 6.91363281 -29.37320313 6.82726562 -28.53515625 6.73828125 C-18.63471942 5.52439192 -9.48552484 3.0087258 0 0 Z " fill="#E5514C" transform="translate(93,163)"/>
<path d="M0 0 C1.32 0.66 2.64 1.32 4 2 C3.01 2.495 3.01 2.495 2 3 C2.33 4.65 2.66 6.3 3 8 C3.99 8 4.98 8 6 8 C6.33 6.35 6.66 4.7 7 3 C6.34 3 5.68 3 5 3 C5 2.34 5 1.68 5 1 C6.32 0.67 7.64 0.34 9 0 C9.2226746 1.43534841 9.42761906 2.87345525 9.625 4.3125 C9.74101563 5.11300781 9.85703125 5.91351563 9.9765625 6.73828125 C10 9 10 9 8 12 C4.5 12.3125 4.5 12.3125 1 12 C-1 10 -1 10 -1.23046875 8.125 C-1.21628906 7.42375 -1.20210937 6.7225 -1.1875 6 C-1.18105469 5.29875 -1.17460938 4.5975 -1.16796875 3.875 C-1 2 -1 2 0 0 Z " fill="#00ACEC" transform="translate(651,152)"/>
<path d="M0 0 C1 4 1 4 0 6 C-2.06640625 6.4140625 -2.06640625 6.4140625 -4.5625 6.625 C-5.38878906 6.69976562 -6.21507813 6.77453125 -7.06640625 6.8515625 C-8.02353516 6.92503906 -8.02353516 6.92503906 -9 7 C-9 5.68 -9 4.36 -9 3 C-6.03 2.01 -3.06 1.02 0 0 Z " fill="#E65051" transform="translate(93,163)"/>
<path d="M0 0 C4 1.33333333 8 2.66666667 12 4 C12 5.65 12 7.3 12 9 C10.18381144 7.88096454 8.37214474 6.75458716 6.5625 5.625 C5.55316406 4.99851562 4.54382813 4.37203125 3.50390625 3.7265625 C1 2 1 2 0 0 Z " fill="#EA4B46" transform="translate(122,69)"/>
<path d="M0 0 C1.98 0 3.96 0 6 0 C6 1.32 6 2.64 6 4 C4.02 4 2.04 4 0 4 C0 2.68 0 1.36 0 0 Z " fill="#F45E5B" transform="translate(110,122)"/>
<path d="M0 0 C0 0.99 0 1.98 0 3 C-2.64 3 -5.28 3 -8 3 C-8 2.34 -8 1.68 -8 1 C-5.10765685 0.17361624 -3.11257569 0 0 0 Z " fill="#F44030" transform="translate(84,167)"/>
<path d="M0 0 C0.99 0 1.98 0 3 0 C6 5.75 6 5.75 6 8 C5.01 7.67 4.02 7.34 3 7 C1.3125 3.4375 1.3125 3.4375 0 0 Z " fill="#1FA7E5" transform="translate(196,155)"/>
<path d="M0 0 C1.98 0 3.96 0 6 0 C5.67 0.99 5.34 1.98 5 3 C3.35 3 1.7 3 0 3 C0 2.01 0 1.02 0 0 Z " fill="#00A7EB" transform="translate(85,136)"/>
<path d="M0 0 C0.99 0.33 1.98 0.66 3 1 C3 1.99 3 2.98 3 4 C1.68 4 0.36 4 -1 4 C-0.67 2.68 -0.34 1.36 0 0 Z " fill="#00ACEC" transform="translate(658,165)"/>
</svg>
